<svg id="SvgjsSvg1015" width="288" height="288" xmlns="http://www.w3.org/2000/svg" version="1.1" xmlns:xlink="http://www.w3.org/1999/xlink" xmlns:svgjs="http://svgjs.com/svgjs"><defs id="SvgjsDefs1016"></defs><g id="SvgjsG1017"><svg xmlns="http://www.w3.org/2000/svg" width="288" height="288" viewBox="0 0 400 316.344"><path fill="#007ae8" fill-rule="evenodd" d="M189.238 34.581 C 188.976 34.794,188.806 35.277,188.861 35.653 C 188.928 36.115,188.754 36.404,188.324 36.540 C 187.706 36.736,186.709 38.311,186.709 39.092 C 186.709 39.305,186.489 39.662,186.220 39.885 C 185.951 40.109,185.797 40.464,185.878 40.675 C 185.959 40.887,185.681 41.244,185.260 41.469 C 184.838 41.695,184.494 42.131,184.494 42.440 C 184.494 42.748,184.340 43.096,184.152 43.212 C 183.963 43.328,183.895 43.764,183.999 44.180 C 184.147 44.770,184.063 44.937,183.614 44.937 C 182.879 44.937,182.278 45.535,182.278 46.266 C 182.278 46.579,182.136 46.835,181.962 46.835 C 181.788 46.835,181.646 47.068,181.646 47.352 C 181.646 47.636,181.358 48.118,181.006 48.423 C 180.408 48.942,180.403 48.993,180.927 49.204 C 181.428 49.407,181.412 49.460,180.771 49.707 C 180.377 49.859,179.917 50.343,179.750 50.783 C 179.583 51.222,179.300 51.582,179.122 51.582 C 178.943 51.582,178.797 51.822,178.797 52.116 C 178.797 52.409,178.477 53.002,178.085 53.433 C 177.694 53.863,177.551 54.113,177.769 53.988 C 178.417 53.615,178.217 54.253,177.532 54.747 C 177.184 54.998,176.899 55.449,176.899 55.750 C 176.899 56.051,176.669 56.426,176.388 56.583 C 175.973 56.816,175.945 56.996,176.241 57.549 C 176.599 58.218,176.546 58.293,175.658 58.356 C 175.188 58.390,174.114 59.981,174.074 60.703 C 174.061 60.933,173.850 61.322,173.604 61.568 C 173.352 61.820,173.235 62.310,173.336 62.695 C 173.464 63.185,173.390 63.335,173.073 63.229 C 172.553 63.056,171.835 63.690,171.835 64.323 C 171.835 64.568,171.729 64.876,171.598 65.007 C 171.468 65.139,171.361 65.625,171.361 66.088 C 171.361 66.613,171.205 66.898,170.948 66.846 C 170.721 66.799,170.294 67.005,169.999 67.303 C 169.494 67.812,169.495 67.832,170.016 67.635 C 170.833 67.325,170.690 67.835,169.858 68.200 C 169.466 68.372,169.100 68.833,169.044 69.225 C 168.989 69.616,168.800 69.937,168.624 69.937 C 168.433 69.937,168.388 70.320,168.513 70.886 C 168.693 71.706,168.631 71.835,168.055 71.835 C 167.636 71.835,167.278 72.129,167.089 72.627 C 166.923 73.062,166.642 73.418,166.464 73.418 C 166.285 73.418,166.139 73.685,166.139 74.012 C 166.139 74.339,165.920 74.788,165.651 75.011 C 165.313 75.292,165.264 75.517,165.493 75.746 C 166.003 76.257,165.888 76.529,165.114 76.639 C 164.699 76.699,164.360 77.003,164.296 77.373 C 164.236 77.722,163.964 78.180,163.692 78.392 C 163.294 78.702,163.273 78.869,163.588 79.248 C 164.016 79.764,163.777 80.423,163.188 80.351 C 162.154 80.223,161.912 80.385,162.499 80.814 C 163.074 81.235,163.072 81.256,162.426 81.461 C 161.538 81.742,160.361 83.968,160.844 84.451 C 161.100 84.708,160.929 84.894,160.205 85.147 C 159.555 85.373,159.275 85.645,159.388 85.939 C 159.482 86.186,159.331 86.475,159.052 86.582 C 158.773 86.689,158.544 87.029,158.544 87.337 C 158.544 87.645,158.334 88.072,158.076 88.286 C 157.740 88.564,157.694 88.834,157.912 89.242 C 158.133 89.654,158.093 89.857,157.768 89.982 C 157.521 90.077,157.271 90.009,157.212 89.832 C 157.153 89.655,156.789 90.102,156.403 90.825 C 155.891 91.783,155.783 92.293,156.004 92.705 C 156.355 93.362,156.142 93.671,155.337 93.671 C 154.964 93.671,154.829 93.833,154.946 94.138 C 155.061 94.437,154.829 94.741,154.303 94.980 C 153.851 95.186,153.481 95.588,153.481 95.874 C 153.481 96.159,153.316 96.557,153.115 96.759 C 152.839 97.035,152.838 97.233,153.112 97.563 C 153.537 98.075,153.291 98.418,152.498 98.418 C 152.189 98.418,151.834 98.582,151.710 98.783 C 151.570 99.009,151.623 99.063,151.850 98.923 C 152.062 98.792,152.215 98.890,152.215 99.156 C 152.215 99.409,151.999 99.699,151.736 99.800 C 151.472 99.901,151.120 100.343,150.952 100.783 C 150.785 101.223,150.506 101.582,150.332 101.582 C 150.129 101.582,150.119 101.854,150.304 102.341 C 150.628 103.193,150.466 103.481,149.660 103.481 C 149.279 103.481,149.157 103.662,149.264 104.070 C 149.370 104.476,149.213 104.713,148.760 104.832 C 148.353 104.938,148.101 105.261,148.101 105.677 C 148.101 106.046,147.890 106.430,147.632 106.529 C 147.284 106.663,147.243 106.858,147.474 107.289 C 147.911 108.106,147.870 108.228,147.152 108.228 C 146.742 108.228,146.519 108.439,146.519 108.827 C 146.519 109.156,146.316 109.504,146.068 109.599 C 145.480 109.825,144.550 111.798,144.678 112.548 C 144.747 112.949,144.560 113.164,144.084 113.232 C 143.645 113.294,143.451 113.491,143.557 113.766 C 143.649 114.006,143.427 114.387,143.064 114.614 C 142.702 114.840,142.405 115.268,142.405 115.564 C 142.405 115.860,142.259 116.192,142.080 116.303 C 141.902 116.413,141.795 116.882,141.843 117.345 C 141.914 118.026,141.793 118.194,141.208 118.228 C 140.365 118.276,139.833 118.671,140.612 118.671 C 141.393 118.671,141.251 119.151,140.348 119.563 C 139.884 119.774,139.557 120.188,139.557 120.563 C 139.557 120.915,139.403 121.203,139.215 121.203 C 139.000 121.203,138.951 121.555,139.082 122.152 C 139.254 122.936,139.190 123.102,138.712 123.106 C 138.393 123.109,137.919 123.265,137.658 123.452 C 137.258 123.741,137.270 123.766,137.737 123.616 C 138.081 123.505,138.291 123.601,138.291 123.868 C 138.291 124.105,137.935 124.388,137.500 124.497 C 137.011 124.620,136.709 124.920,136.709 125.284 C 136.709 125.607,136.493 126.051,136.230 126.269 C 135.875 126.564,135.841 126.774,136.099 127.085 C 136.518 127.590,136.225 128.165,135.549 128.165 C 135.263 128.165,135.128 128.346,135.226 128.599 C 135.322 128.849,135.067 129.208,134.627 129.444 C 134.205 129.669,133.861 130.054,133.861 130.298 C 133.861 130.542,133.628 130.974,133.344 131.258 C 133.005 131.597,132.950 131.817,133.185 131.895 C 133.802 132.101,133.577 132.911,132.904 132.911 C 132.518 132.911,132.148 133.214,131.974 133.672 C 131.815 134.090,131.533 134.526,131.349 134.640 C 131.164 134.754,131.013 135.124,131.013 135.462 C 131.013 135.800,130.859 136.076,130.671 136.076 C 130.456 136.076,130.407 136.428,130.538 137.025 C 130.719 137.849,130.657 137.975,130.070 137.975 C 129.698 137.975,129.474 138.106,129.573 138.266 C 129.672 138.426,129.395 138.838,128.959 139.182 C 128.522 139.525,128.165 139.988,128.165 140.210 C 128.165 140.433,127.929 140.875,127.641 141.193 C 127.327 141.540,127.264 141.772,127.483 141.772 C 127.684 141.772,127.848 141.986,127.848 142.247 C 127.848 142.513,127.566 142.722,127.205 142.722 C 126.852 142.722,126.480 142.971,126.380 143.275 C 125.941 144.610,125.283 145.844,124.952 145.955 C 124.687 146.043,124.685 146.247,124.943 146.730 C 125.338 147.468,125.156 147.785,124.338 147.785 C 123.798 147.785,122.785 149.354,122.785 150.191 C 122.785 150.417,122.542 150.737,122.246 150.903 C 121.791 151.158,121.772 151.283,122.128 151.712 C 122.495 152.154,122.421 152.264,121.560 152.565 C 121.015 152.755,120.570 153.112,120.570 153.358 C 120.570 153.943,119.962 155.013,119.036 156.062 C 118.586 156.571,118.461 156.883,118.720 156.853 C 118.954 156.826,119.180 156.946,119.221 157.120 C 119.263 157.294,119.120 157.440,118.905 157.445 C 118.219 157.460,117.722 157.929,117.722 158.563 C 117.722 158.901,117.568 159.177,117.380 159.177 C 117.169 159.177,117.114 159.523,117.237 160.084 C 117.417 160.902,117.342 161.009,116.471 161.184 C 115.941 161.290,115.506 161.540,115.506 161.740 C 115.506 161.999,115.642 161.990,115.981 161.709 C 116.367 161.388,116.456 161.404,116.456 161.794 C 116.456 162.058,116.100 162.363,115.665 162.472 C 115.164 162.597,114.873 162.894,114.873 163.278 C 114.873 163.613,114.723 163.980,114.538 164.094 C 114.346 164.212,114.290 164.693,114.405 165.220 C 114.580 166.016,114.514 166.139,113.915 166.139 C 113.459 166.139,113.280 166.287,113.390 166.574 C 113.486 166.824,113.231 167.183,112.791 167.419 C 112.370 167.644,112.025 168.028,112.025 168.272 C 112.025 168.516,111.793 168.949,111.508 169.233 C 111.169 169.572,111.115 169.791,111.350 169.870 C 111.983 170.081,111.733 170.839,110.997 170.943 C 110.533 171.009,110.249 171.299,110.181 171.776 C 110.124 172.178,109.875 172.585,109.627 172.680 C 109.380 172.775,109.177 173.122,109.177 173.452 C 109.177 173.781,109.032 174.051,108.855 174.051 C 108.667 174.051,108.617 174.389,108.736 174.861 C 108.900 175.514,108.808 175.706,108.264 175.848 C 107.890 175.946,107.355 176.537,107.065 177.174 C 106.777 177.806,106.255 178.643,105.905 179.035 C 105.552 179.430,105.435 179.747,105.641 179.747 C 106.351 179.747,106.008 180.629,105.222 180.826 C 104.721 180.952,104.430 181.248,104.430 181.633 C 104.430 181.967,104.287 182.329,104.113 182.437 C 103.938 182.545,103.878 182.965,103.980 183.371 C 104.196 184.229,103.559 184.787,103.104 184.139 C 102.886 183.830,102.850 183.945,102.978 184.537 C 103.116 185.174,103.021 185.407,102.572 185.524 C 101.826 185.719,100.883 187.583,101.132 188.369 C 101.270 188.802,101.139 189.017,100.661 189.141 C 100.298 189.237,100.000 189.449,100.000 189.613 C 100.000 189.777,99.858 189.823,99.684 189.715 C 99.509 189.608,99.367 189.813,99.367 190.171 C 99.367 190.530,99.225 190.823,99.051 190.823 C 98.877 190.823,98.734 191.090,98.734 191.417 C 98.734 191.744,98.515 192.193,98.246 192.416 C 97.907 192.697,97.859 192.922,98.088 193.151 C 98.584 193.647,98.486 193.987,97.848 193.987 C 97.119 193.987,96.519 194.587,96.519 195.316 C 96.519 195.630,96.377 195.886,96.203 195.886 C 96.028 195.886,95.886 196.110,95.886 196.383 C 95.886 196.657,95.662 197.105,95.388 197.379 C 95.016 197.751,94.986 197.936,95.270 198.112 C 95.740 198.402,95.383 199.051,94.752 199.051 C 94.497 199.051,94.143 199.371,93.966 199.763 C 93.441 200.922,92.862 201.852,92.228 202.553 C 91.849 202.972,91.787 203.174,92.058 203.109 C 92.757 202.941,92.803 203.702,92.105 203.885 C 91.752 203.977,91.323 204.422,91.151 204.874 C 90.979 205.326,90.688 205.696,90.503 205.696 C 90.269 205.696,90.271 205.890,90.510 206.336 C 90.921 207.104,90.679 207.595,89.889 207.595 C 89.569 207.595,89.223 207.816,89.120 208.086 C 88.997 208.407,89.067 208.512,89.323 208.388 C 89.539 208.284,89.395 208.436,89.003 208.726 C 88.612 209.017,88.291 209.504,88.291 209.810 C 88.291 210.116,88.071 210.548,87.803 210.771 C 87.464 211.052,87.416 211.277,87.645 211.506 C 88.183 212.043,88.031 212.279,87.003 212.505 C 86.468 212.622,86.102 212.790,86.190 212.878 C 86.424 213.112,85.202 215.340,84.482 215.992 C 84.140 216.301,83.861 216.817,83.861 217.138 C 83.861 217.459,83.718 217.722,83.544 217.722 C 83.370 217.722,83.228 218.006,83.228 218.354 C 83.228 218.703,83.085 218.987,82.911 218.987 C 82.737 218.987,82.595 219.255,82.595 219.582 C 82.595 219.908,82.396 220.341,82.153 220.543 C 81.910 220.744,81.779 221.171,81.863 221.490 C 81.973 221.912,81.792 222.126,81.197 222.275 C 80.673 222.407,80.380 222.699,80.380 223.089 C 80.380 223.423,80.242 223.782,80.074 223.886 C 79.905 223.990,79.852 224.497,79.955 225.012 C 80.125 225.860,80.064 225.949,79.312 225.949 C 78.855 225.949,78.481 226.100,78.481 226.284 C 78.481 226.469,78.623 226.532,78.797 226.424 C 78.972 226.316,79.114 226.355,79.114 226.510 C 79.114 226.665,78.758 226.982,78.323 227.215 C 77.888 227.448,77.532 227.887,77.532 228.192 C 77.532 228.496,77.354 228.809,77.136 228.888 C 76.821 229.002,76.822 229.170,77.143 229.713 C 77.469 230.264,77.469 230.417,77.143 230.515 C 75.827 230.909,75.633 231.053,75.633 231.636 C 75.633 231.989,75.491 232.278,75.316 232.278 C 75.142 232.278,75.000 232.546,75.000 232.873 C 75.000 233.199,74.789 233.642,74.532 233.855 C 74.200 234.131,74.151 234.406,74.363 234.802 C 74.709 235.450,74.494 235.759,73.696 235.759 C 73.350 235.759,72.921 236.220,72.589 236.946 C 72.291 237.599,71.761 238.453,71.412 238.845 C 71.059 239.240,70.941 239.557,71.147 239.557 C 71.857 239.557,71.514 240.439,70.728 240.636 C 70.293 240.745,69.937 241.024,69.937 241.255 C 69.937 241.968,68.956 243.685,68.323 244.081 C 67.992 244.287,67.722 244.631,67.722 244.845 C 67.722 245.059,67.437 245.741,67.089 246.361 C 66.741 246.981,66.456 247.672,66.456 247.898 C 66.456 248.123,66.100 248.642,65.665 249.051 C 65.229 249.459,64.873 249.983,64.873 250.213 C 64.873 250.444,64.731 250.633,64.557 250.633 C 64.383 250.633,64.241 250.825,64.241 251.059 C 64.241 251.663,63.365 253.342,62.810 253.803 C 62.552 254.017,62.342 254.463,62.342 254.796 C 62.342 255.128,62.128 255.482,61.867 255.582 C 61.606 255.682,61.392 256.033,61.392 256.363 C 61.392 256.692,61.250 256.962,61.076 256.962 C 60.902 256.962,60.759 257.229,60.759 257.556 C 60.759 257.883,60.539 258.333,60.269 258.557 C 59.999 258.781,59.481 259.617,59.118 260.416 C 58.755 261.214,58.192 262.097,57.868 262.379 C 57.544 262.660,57.278 263.123,57.278 263.407 C 57.278 263.692,57.136 263.924,56.962 263.924 C 56.788 263.924,56.646 264.116,56.646 264.350 C 56.646 264.926,55.708 266.772,55.415 266.772 C 55.109 266.772,53.797 269.233,53.797 269.808 C 53.797 270.053,53.655 270.253,53.481 270.253 C 53.307 270.253,53.165 270.528,53.165 270.863 C 53.165 271.199,52.809 271.753,52.373 272.095 C 51.833 272.521,51.582 273.029,51.582 273.701 L 51.582 274.684 97.578 274.684 C 147.795 274.684,144.620 274.793,144.620 273.067 C 144.620 272.815,144.905 272.403,145.253 272.152 C 145.601 271.901,145.886 271.518,145.886 271.301 C 145.886 271.083,146.181 270.379,146.542 269.737 C 146.903 269.094,147.132 268.314,147.051 268.004 C 146.949 267.612,147.107 267.411,147.568 267.343 C 147.982 267.283,148.460 266.770,148.837 265.981 C 149.170 265.285,149.568 264.468,149.721 264.166 C 149.875 263.863,150.000 263.345,150.000 263.013 C 150.000 262.634,150.294 262.337,150.791 262.212 C 151.226 262.103,151.582 261.807,151.582 261.554 C 151.582 261.302,151.878 260.569,152.239 259.927 C 152.600 259.284,152.833 258.522,152.758 258.234 C 152.668 257.889,152.930 257.573,153.526 257.309 C 154.067 257.070,154.430 256.665,154.430 256.303 C 154.430 255.969,154.573 255.696,154.747 255.696 C 154.921 255.696,155.063 255.429,155.063 255.102 C 155.063 254.775,155.262 254.343,155.505 254.141 C 155.748 253.939,155.879 253.514,155.796 253.197 C 155.693 252.803,155.855 252.564,156.304 252.447 C 156.710 252.340,156.962 252.017,156.962 251.602 C 156.962 251.232,157.176 250.848,157.437 250.747 C 157.698 250.647,157.911 250.348,157.911 250.082 C 157.911 249.817,158.218 249.334,158.593 249.009 C 158.967 248.684,159.110 248.418,158.909 248.418 C 158.708 248.418,158.544 248.267,158.544 248.083 C 158.544 247.898,158.671 247.826,158.826 247.922 C 158.981 248.017,159.344 247.599,159.632 246.991 C 159.920 246.383,160.292 245.886,160.458 245.886 C 160.624 245.886,160.759 245.623,160.759 245.302 C 160.759 244.981,161.044 244.461,161.392 244.146 C 162.093 243.512,162.250 242.886,161.630 243.202 C 161.412 243.312,161.555 243.120,161.946 242.774 C 162.338 242.428,162.658 241.927,162.658 241.661 C 162.658 241.395,162.809 241.083,162.993 240.969 C 163.178 240.856,163.285 240.384,163.231 239.922 C 163.156 239.283,163.284 239.061,163.767 238.991 C 164.357 238.907,165.506 237.367,165.506 236.661 C 165.506 236.488,165.725 236.129,165.992 235.862 C 166.349 235.505,166.387 235.266,166.135 234.963 C 165.777 234.532,166.218 233.996,166.693 234.284 C 166.824 234.363,167.114 234.229,167.338 233.986 C 167.563 233.743,167.672 233.544,167.581 233.544 C 167.348 233.544,168.674 231.048,169.021 230.834 C 169.185 230.732,169.166 230.398,168.977 230.044 C 168.796 229.707,168.725 229.413,168.818 229.391 C 170.029 229.108,170.570 228.719,170.570 228.131 C 170.570 227.801,170.712 227.532,170.886 227.532 C 171.060 227.532,171.203 227.264,171.203 226.937 C 171.203 226.611,171.418 226.165,171.681 225.946 C 172.046 225.643,172.074 225.446,171.799 225.114 C 171.511 224.767,171.638 224.609,172.428 224.334 C 173.024 224.126,173.418 223.770,173.418 223.440 C 173.418 223.137,173.525 222.783,173.655 222.651 C 173.786 222.520,173.892 222.034,173.892 221.572 C 173.892 221.045,174.069 220.727,174.367 220.716 C 174.628 220.707,174.800 220.510,174.749 220.278 C 174.698 220.046,174.948 219.653,175.303 219.404 C 175.659 219.155,175.949 218.741,175.949 218.485 C 175.949 218.228,176.157 217.938,176.410 217.841 C 176.729 217.719,176.816 217.387,176.693 216.770 C 176.540 216.009,176.625 215.860,177.260 215.770 C 177.671 215.712,178.006 215.494,178.006 215.285 C 178.006 215.076,178.184 214.727,178.402 214.509 C 178.619 214.292,178.797 213.865,178.797 213.560 C 178.797 213.255,179.027 212.878,179.308 212.720 C 179.716 212.492,179.748 212.303,179.468 211.780 C 179.157 211.198,179.223 211.102,180.065 210.917 C 180.586 210.803,181.013 210.505,181.013 210.255 C 181.013 209.703,181.594 208.632,182.413 207.674 C 182.764 207.264,182.864 206.962,182.650 206.962 C 181.940 206.962,182.283 206.080,183.070 205.883 C 183.580 205.755,183.861 205.462,183.861 205.057 C 183.861 204.712,184.003 204.430,184.177 204.430 C 184.351 204.430,184.494 204.163,184.494 203.836 C 184.494 203.509,184.693 203.077,184.936 202.875 C 185.179 202.673,185.308 202.243,185.223 201.918 C 185.119 201.518,185.278 201.260,185.716 201.122 C 186.560 200.854,187.385 199.177,187.145 198.219 C 186.992 197.610,187.080 197.468,187.614 197.468 C 188.026 197.468,188.212 197.314,188.112 197.053 C 188.024 196.824,188.312 196.445,188.755 196.208 C 189.196 195.972,189.557 195.565,189.557 195.304 C 189.557 195.042,189.793 194.568,190.081 194.250 C 190.394 193.903,190.458 193.671,190.239 193.671 C 189.574 193.671,189.860 192.768,190.557 192.664 C 190.950 192.606,191.278 192.299,191.330 191.939 C 191.380 191.596,191.642 191.153,191.913 190.955 C 192.184 190.757,192.405 190.361,192.405 190.076 C 192.405 189.790,192.563 189.557,192.756 189.557 C 192.975 189.557,193.030 189.250,192.901 188.740 C 192.738 188.089,192.827 187.888,193.336 187.755 C 193.935 187.598,194.937 186.078,194.937 185.327 C 194.937 185.143,195.328 184.667,195.807 184.269 C 196.301 183.858,196.438 183.628,196.123 183.737 C 195.757 183.864,195.570 183.768,195.570 183.454 C 195.570 183.193,195.926 182.891,196.361 182.781 C 196.861 182.656,197.152 182.360,197.152 181.975 C 197.152 181.640,197.298 181.276,197.477 181.166 C 197.655 181.055,197.762 180.586,197.714 180.124 C 197.643 179.443,197.764 179.274,198.349 179.241 C 198.746 179.218,199.173 179.086,199.298 178.948 C 199.423 178.810,199.276 178.786,198.972 178.895 C 198.142 179.193,198.287 178.372,199.130 178.002 C 199.521 177.830,199.887 177.369,199.943 176.978 C 199.999 176.586,200.188 176.266,200.364 176.266 C 200.554 176.266,200.599 175.882,200.475 175.316 C 200.296 174.503,200.359 174.367,200.914 174.367 C 201.319 174.367,201.503 174.211,201.403 173.952 C 201.315 173.723,201.603 173.344,202.046 173.107 C 202.487 172.871,202.848 172.435,202.848 172.137 C 202.848 171.840,203.068 171.414,203.336 171.191 C 203.675 170.910,203.723 170.685,203.494 170.456 C 202.953 169.915,203.112 169.606,204.114 169.257 C 204.635 169.075,204.990 168.809,204.902 168.666 C 204.813 168.523,204.956 168.191,205.219 167.928 C 205.481 167.665,205.696 167.288,205.696 167.089 C 205.696 166.890,205.929 166.494,206.213 166.210 C 206.552 165.871,206.607 165.652,206.371 165.573 C 205.755 165.368,205.980 164.557,206.653 164.557 C 207.039 164.557,207.409 164.254,207.583 163.797 C 207.742 163.378,208.024 162.943,208.208 162.829 C 208.393 162.714,208.544 162.344,208.544 162.007 C 208.544 161.669,208.702 161.392,208.895 161.392 C 209.109 161.392,209.170 161.091,209.053 160.623 C 208.903 160.027,209.007 159.806,209.511 159.646 C 209.870 159.533,210.294 159.096,210.453 158.675 C 210.613 158.255,210.890 157.911,211.068 157.911 C 211.246 157.911,211.392 157.644,211.392 157.317 C 211.392 156.990,211.608 156.544,211.871 156.326 C 212.232 156.026,212.262 155.824,211.995 155.501 C 211.717 155.167,211.820 155.006,212.466 154.760 C 212.969 154.569,213.291 154.203,213.291 153.824 C 213.291 153.482,213.445 153.107,213.633 152.990 C 213.821 152.874,213.894 152.456,213.795 152.061 C 213.644 151.459,213.768 151.313,214.561 151.154 C 215.081 151.050,215.506 150.811,215.506 150.622 C 215.506 150.433,215.374 150.361,215.212 150.461 C 215.050 150.561,214.838 150.515,214.741 150.358 C 214.644 150.200,214.832 150.002,215.160 149.916 C 215.876 149.729,216.919 147.675,216.652 146.979 C 216.518 146.630,216.741 146.387,217.408 146.154 C 217.928 145.973,218.281 145.707,218.193 145.564 C 218.104 145.421,218.247 145.089,218.510 144.827 C 218.772 144.564,218.987 144.143,218.987 143.890 C 218.987 143.638,219.203 143.253,219.466 143.035 C 219.834 142.729,219.860 142.536,219.579 142.197 C 219.084 141.601,219.465 141.316,220.965 141.163 C 221.096 141.150,221.203 140.863,221.203 140.525 C 221.203 140.187,221.345 139.823,221.519 139.715 C 221.693 139.608,221.835 139.304,221.835 139.041 C 221.835 138.778,222.036 138.361,222.282 138.116 C 222.528 137.870,222.658 137.400,222.572 137.072 C 222.457 136.630,222.628 136.421,223.233 136.269 C 223.768 136.135,224.051 135.847,224.051 135.437 C 224.051 135.092,224.193 134.810,224.367 134.810 C 224.541 134.810,224.684 134.570,224.684 134.277 C 224.684 133.983,225.004 133.391,225.396 132.960 C 225.787 132.529,225.930 132.279,225.712 132.404 C 225.473 132.542,225.316 132.451,225.316 132.173 C 225.316 131.920,225.532 131.630,225.796 131.529 C 226.060 131.428,226.412 130.986,226.579 130.546 C 226.746 130.106,227.029 129.747,227.207 129.747 C 227.386 129.747,227.532 129.523,227.532 129.250 C 227.532 128.976,227.747 128.537,228.009 128.275 C 228.272 128.012,228.399 127.655,228.291 127.481 C 228.184 127.307,228.396 126.954,228.763 126.697 C 229.130 126.440,229.430 125.962,229.430 125.634 C 229.430 125.306,229.585 124.942,229.774 124.825 C 229.964 124.708,230.045 124.332,229.956 123.990 C 229.833 123.520,230.014 123.292,230.700 123.052 C 231.225 122.869,231.543 122.568,231.454 122.337 C 231.369 122.117,231.520 121.754,231.789 121.531 C 232.058 121.308,232.278 120.946,232.278 120.728 C 232.278 120.509,232.489 120.156,232.747 119.942 C 233.087 119.660,233.130 119.396,232.904 118.973 C 232.596 118.398,233.041 117.745,233.457 118.162 C 233.765 118.470,234.494 117.689,234.494 117.050 C 234.494 116.723,234.652 116.456,234.844 116.456 C 235.064 116.456,235.118 116.148,234.989 115.634 C 234.872 115.166,234.942 114.622,235.152 114.368 C 235.840 113.540,236.306 113.890,236.472 115.361 C 236.561 116.151,236.854 117.041,237.124 117.339 C 237.393 117.636,237.588 118.022,237.557 118.196 C 237.525 118.370,237.827 118.655,238.226 118.829 C 238.772 119.067,238.908 119.321,238.774 119.858 C 238.676 120.249,238.741 120.570,238.918 120.570 C 239.095 120.570,239.241 120.837,239.241 121.164 C 239.241 121.491,239.454 121.935,239.715 122.152 C 239.976 122.369,240.190 122.746,240.190 122.990 C 240.190 123.234,240.546 123.569,240.981 123.734 C 241.811 124.050,242.023 124.547,241.413 124.750 C 241.178 124.829,241.233 125.048,241.572 125.387 C 241.856 125.671,242.089 126.113,242.089 126.368 C 242.089 126.622,242.291 126.909,242.539 127.004 C 242.786 127.099,243.036 127.506,243.093 127.908 C 243.160 128.385,243.444 128.674,243.908 128.740 C 244.685 128.851,244.801 129.123,244.290 129.634 C 244.062 129.863,244.110 130.088,244.449 130.369 C 244.717 130.591,244.937 131.041,244.937 131.368 C 244.937 131.695,245.079 131.962,245.253 131.962 C 245.427 131.962,245.570 132.235,245.570 132.568 C 245.570 132.933,245.935 133.337,246.485 133.580 C 246.989 133.803,247.337 134.153,247.258 134.357 C 247.180 134.561,247.352 134.819,247.642 134.930 C 248.017 135.075,248.113 135.353,247.975 135.901 C 247.869 136.324,247.925 136.758,248.100 136.866 C 248.275 136.974,248.418 137.316,248.418 137.626 C 248.418 137.936,248.774 138.352,249.209 138.550 C 249.644 138.748,250.000 139.064,250.000 139.252 C 250.000 139.440,249.836 139.493,249.635 139.369 C 249.408 139.229,249.355 139.282,249.495 139.508 C 249.619 139.709,250.009 139.873,250.360 139.873 C 250.906 139.873,250.969 140.012,250.791 140.823 C 250.660 141.420,250.709 141.772,250.924 141.772 C 251.112 141.772,251.266 142.061,251.266 142.415 C 251.266 142.769,251.470 143.136,251.721 143.232 C 251.971 143.328,252.102 143.644,252.013 143.934 C 251.877 144.379,251.908 144.373,252.211 143.902 C 252.685 143.164,253.271 143.513,252.857 144.286 C 252.612 144.745,252.661 144.855,253.094 144.821 C 253.484 144.791,253.639 145.018,253.639 145.621 C 253.639 146.084,253.746 146.570,253.877 146.702 C 254.007 146.833,254.114 147.188,254.114 147.490 C 254.114 147.821,254.508 148.177,255.104 148.384 C 255.966 148.685,256.039 148.795,255.673 149.237 C 255.317 149.666,255.335 149.791,255.790 150.046 C 256.087 150.212,256.329 150.630,256.329 150.975 C 256.329 151.320,256.543 151.684,256.804 151.784 C 257.065 151.884,257.278 152.236,257.278 152.566 C 257.278 152.895,257.421 153.182,257.595 153.204 C 257.769 153.226,258.054 153.279,258.228 153.323 C 258.402 153.366,258.621 153.420,258.714 153.441 C 258.807 153.463,258.719 153.787,258.519 154.160 C 258.224 154.712,258.251 154.893,258.667 155.125 C 258.947 155.283,259.177 155.596,259.177 155.821 C 259.177 156.047,259.467 156.493,259.821 156.814 C 260.176 157.134,260.394 157.584,260.306 157.812 C 260.209 158.066,260.382 158.228,260.751 158.228 C 261.566 158.228,261.842 158.755,261.213 159.107 C 260.747 159.368,260.747 159.435,261.206 159.895 C 261.483 160.172,261.709 160.540,261.709 160.714 C 261.709 160.888,262.077 161.319,262.527 161.673 C 262.976 162.027,263.253 162.464,263.141 162.646 C 263.027 162.829,263.202 162.975,263.536 162.975 C 264.396 162.975,264.584 163.281,264.184 164.030 C 263.925 164.514,263.928 164.716,264.195 164.806 C 264.394 164.872,264.557 165.171,264.557 165.469 C 264.557 166.175,265.167 166.772,265.886 166.772 C 266.545 166.772,266.619 167.115,266.076 167.658 C 265.781 167.954,265.839 168.038,266.340 168.038 C 267.246 168.038,267.427 168.323,266.991 169.063 C 266.696 169.564,266.700 169.734,267.009 169.846 C 267.227 169.925,267.405 170.262,267.405 170.596 C 267.405 170.930,267.547 171.203,267.722 171.203 C 267.896 171.203,268.040 171.452,268.043 171.756 C 268.047 172.226,268.093 172.239,268.346 171.838 C 268.572 171.481,268.734 171.455,269.010 171.731 C 269.455 172.177,269.091 172.880,268.570 172.581 C 268.364 172.463,268.517 172.719,268.908 173.150 C 269.300 173.581,269.620 174.085,269.620 174.270 C 269.620 174.455,269.840 174.789,270.109 175.012 C 270.378 175.235,270.529 175.599,270.444 175.821 C 270.349 176.069,270.647 176.302,271.221 176.428 C 272.210 176.645,272.355 176.885,271.822 177.418 C 271.593 177.647,271.642 177.872,271.980 178.153 C 272.249 178.376,272.468 178.829,272.468 179.159 C 272.468 179.493,272.820 179.921,273.259 180.121 C 274.126 180.516,274.268 180.872,273.655 181.120 C 273.438 181.207,273.572 181.290,273.953 181.304 C 274.862 181.337,275.160 181.862,274.632 182.502 C 274.284 182.924,274.283 183.039,274.625 183.154 C 274.854 183.231,275.171 183.635,275.329 184.052 C 275.507 184.520,275.872 184.810,276.283 184.810 C 276.858 184.810,276.921 184.939,276.741 185.759 C 276.609 186.357,276.659 186.709,276.874 186.709 C 277.061 186.709,277.215 186.985,277.215 187.323 C 277.215 187.947,277.663 188.380,278.431 188.496 C 279.102 188.597,279.234 188.873,278.839 189.349 C 278.557 189.688,278.583 189.881,278.952 190.187 C 279.215 190.405,279.430 190.848,279.430 191.172 C 279.430 191.535,279.732 191.836,280.219 191.958 C 280.848 192.116,280.971 192.301,280.828 192.871 C 280.708 193.350,280.813 193.648,281.147 193.776 C 281.421 193.881,281.646 194.239,281.646 194.572 C 281.646 194.904,281.859 195.353,282.120 195.570 C 282.381 195.786,282.595 196.160,282.595 196.400 C 282.595 196.639,282.856 196.835,283.175 196.835 C 284.012 196.835,284.203 197.146,283.814 197.873 C 283.545 198.376,283.580 198.571,283.983 198.796 C 284.264 198.953,284.494 199.292,284.494 199.549 C 284.494 199.806,284.853 200.152,285.292 200.319 C 285.946 200.568,286.054 200.767,285.891 201.419 C 285.767 201.911,285.825 202.215,286.042 202.215 C 286.235 202.215,286.392 202.483,286.392 202.809 C 286.392 203.448,287.121 204.229,287.429 203.921 C 287.853 203.498,288.290 204.159,287.975 204.747 C 287.757 205.153,287.763 205.407,287.993 205.550 C 288.179 205.664,288.466 206.114,288.631 206.549 C 288.796 206.984,289.215 207.414,289.561 207.504 C 289.907 207.595,290.190 207.874,290.190 208.125 C 290.190 208.390,290.036 208.487,289.825 208.356 C 289.598 208.216,289.545 208.269,289.685 208.495 C 289.809 208.696,290.203 208.861,290.559 208.861 C 291.094 208.861,291.173 209.000,291.008 209.657 C 290.867 210.217,290.995 210.654,291.437 211.129 C 291.784 211.501,291.992 211.926,291.901 212.073 C 291.809 212.221,292.020 212.342,292.368 212.342 C 293.052 212.342,293.467 212.756,293.126 213.098 C 292.791 213.433,292.748 214.241,293.066 214.241 C 293.225 214.241,293.354 214.511,293.354 214.842 C 293.354 215.228,293.699 215.565,294.313 215.779 C 295.134 216.065,295.243 216.228,295.070 216.917 C 294.945 217.416,295.001 217.722,295.219 217.722 C 295.412 217.722,295.570 217.989,295.570 218.316 C 295.570 218.642,295.811 219.105,296.105 219.344 C 296.543 219.700,296.594 219.701,296.383 219.351 C 296.175 219.005,296.254 218.992,296.801 219.286 C 297.343 219.576,297.413 219.766,297.154 220.250 C 296.915 220.697,296.945 220.918,297.273 221.107 C 297.516 221.246,297.767 221.646,297.830 221.994 C 297.894 222.342,298.266 222.767,298.657 222.939 C 299.505 223.312,299.583 223.722,298.813 223.766 C 298.509 223.784,298.722 223.947,299.288 224.129 C 300.393 224.483,300.463 224.595,300.018 225.298 C 299.823 225.606,299.882 225.867,300.199 226.098 C 300.457 226.287,300.709 226.722,300.758 227.066 C 300.810 227.425,301.138 227.733,301.532 227.791 C 302.246 227.897,302.476 228.658,301.856 228.864 C 301.621 228.943,301.676 229.162,302.015 229.501 C 302.299 229.785,302.532 230.228,302.532 230.484 C 302.532 230.741,302.959 231.100,303.481 231.282 C 304.443 231.617,304.726 232.127,304.072 232.345 C 303.836 232.424,303.891 232.643,304.230 232.982 C 304.514 233.266,304.747 233.718,304.747 233.985 C 304.747 234.563,305.637 235.127,306.551 235.127 C 306.672 235.127,306.601 235.297,306.392 235.506 C 305.856 236.043,305.921 236.329,306.566 236.278 C 306.979 236.245,307.120 236.473,307.120 237.173 C 307.120 237.807,307.334 238.218,307.779 238.441 C 308.141 238.622,308.375 238.957,308.299 239.185 C 308.223 239.412,308.461 239.677,308.827 239.773 C 309.621 239.980,309.696 240.449,308.980 240.723 C 308.536 240.894,308.560 240.990,309.157 241.441 C 309.537 241.727,309.888 242.239,309.937 242.579 C 309.987 242.932,310.318 243.240,310.709 243.297 C 311.406 243.400,311.691 244.304,311.027 244.304 C 310.808 244.304,310.872 244.536,311.185 244.883 C 311.473 245.201,311.709 245.668,311.709 245.921 C 311.709 246.173,312.172 246.566,312.737 246.794 C 313.433 247.074,313.617 247.265,313.307 247.386 C 313.055 247.483,312.805 247.435,312.753 247.278 C 312.698 247.113,306.289 247.029,297.507 247.079 L 282.356 247.164 281.849 246.094 C 281.569 245.505,281.128 244.847,280.867 244.631 C 280.309 244.168,279.430 242.490,279.430 241.888 C 279.430 241.657,279.075 241.379,278.642 241.270 C 278.013 241.112,277.889 240.927,278.032 240.357 C 278.153 239.878,278.048 239.580,277.713 239.452 C 277.439 239.346,277.215 239.064,277.215 238.824 C 277.215 238.212,276.344 236.535,275.785 236.070 C 275.527 235.857,275.316 235.415,275.316 235.088 C 275.316 234.761,275.171 234.494,274.992 234.494 C 274.814 234.494,274.527 234.124,274.355 233.672 C 274.184 233.220,273.757 232.775,273.407 232.684 C 272.904 232.552,272.848 232.426,273.138 232.076 C 273.419 231.737,273.402 231.506,273.066 231.086 C 272.426 230.287,271.835 229.176,271.835 228.768 C 271.835 228.573,271.479 228.134,271.044 227.792 C 270.609 227.449,270.253 226.895,270.253 226.559 C 270.253 226.224,270.111 225.949,269.937 225.949 C 269.763 225.949,269.620 225.689,269.620 225.370 C 269.620 225.051,269.264 224.600,268.829 224.367 C 268.000 223.923,267.776 223.418,268.410 223.418 C 268.624 223.418,268.523 223.116,268.172 222.706 C 267.344 221.737,266.772 220.675,266.772 220.105 C 266.772 219.845,266.403 219.540,265.952 219.426 C 265.303 219.264,265.161 219.068,265.272 218.487 C 265.355 218.053,265.238 217.686,264.985 217.589 C 264.749 217.499,264.557 217.141,264.557 216.793 C 264.557 216.446,264.261 216.003,263.900 215.810 C 263.538 215.616,263.316 215.266,263.406 215.031 C 263.496 214.796,263.365 214.433,263.114 214.225 C 262.863 214.017,262.658 213.594,262.658 213.286 C 262.658 212.978,262.445 212.644,262.184 212.544 C 261.922 212.444,261.709 212.140,261.709 211.869 C 261.709 211.598,261.343 211.238,260.896 211.068 C 260.308 210.844,260.134 210.600,260.267 210.182 C 260.511 209.412,259.556 207.552,258.817 207.359 C 258.493 207.274,258.228 206.990,258.228 206.728 C 258.228 206.340,258.316 206.325,258.703 206.646 C 258.964 206.862,259.177 206.914,259.177 206.760 C 259.177 206.607,258.907 206.312,258.576 206.106 C 257.953 205.717,256.962 203.997,256.962 203.305 C 256.962 203.088,256.536 202.762,256.016 202.580 C 255.335 202.343,255.124 202.108,255.265 201.740 C 255.477 201.188,254.196 198.418,253.729 198.418 C 253.572 198.418,253.525 198.287,253.623 198.127 C 253.722 197.967,253.588 197.621,253.326 197.358 C 253.063 197.096,252.848 196.672,252.848 196.417 C 252.848 196.162,252.634 195.872,252.373 195.772 C 252.112 195.671,251.899 195.303,251.899 194.953 C 251.899 194.537,251.624 194.247,251.108 194.117 C 250.249 193.902,250.135 193.663,250.646 193.151 C 250.875 192.922,250.827 192.697,250.488 192.416 C 250.220 192.193,250.000 191.802,250.000 191.547 C 250.000 191.291,249.680 190.800,249.288 190.454 C 248.896 190.108,248.790 189.929,249.051 190.056 C 249.312 190.184,249.134 189.866,248.655 189.351 C 248.176 188.836,247.785 188.173,247.785 187.878 C 247.785 187.583,247.642 187.342,247.468 187.342 C 247.294 187.342,247.152 187.052,247.152 186.699 C 247.152 186.345,246.938 185.989,246.677 185.908 C 246.416 185.826,245.983 185.690,245.714 185.606 C 245.339 185.488,245.301 185.313,245.549 184.848 C 245.791 184.397,245.754 184.145,245.405 183.855 C 245.147 183.642,244.937 183.288,244.937 183.070 C 244.937 182.851,244.717 182.490,244.448 182.267 C 244.179 182.043,244.023 181.692,244.102 181.486 C 244.182 181.280,243.974 180.915,243.642 180.675 C 243.310 180.436,243.038 180.002,243.038 179.711 C 243.038 179.420,242.835 179.104,242.588 179.009 C 242.340 178.914,242.091 178.507,242.034 178.105 C 241.966 177.628,241.683 177.338,241.218 177.272 C 240.482 177.168,240.232 176.410,240.865 176.199 C 241.100 176.121,241.046 175.901,240.707 175.562 C 240.423 175.278,240.190 174.821,240.190 174.548 C 240.190 174.274,240.054 174.051,239.888 174.051 C 239.722 174.051,239.350 173.552,239.061 172.943 C 238.772 172.334,238.409 171.835,238.255 171.835 C 238.101 171.835,237.964 171.586,237.952 171.282 C 237.902 170.084,236.851 168.832,235.809 168.730 C 235.138 168.663,234.870 168.504,235.013 168.255 C 235.137 168.039,235.106 167.992,234.940 168.143 C 234.782 168.289,234.651 168.502,234.649 168.618 C 234.644 169.122,233.487 171.203,233.213 171.203 C 233.047 171.203,232.911 171.470,232.911 171.797 C 232.911 172.123,232.695 172.570,232.431 172.790 C 232.167 173.009,231.756 173.632,231.519 174.173 C 231.282 174.715,230.866 175.657,230.595 176.266 C 230.324 176.875,229.809 177.583,229.450 177.839 C 229.091 178.095,228.797 178.482,228.797 178.699 C 228.797 178.917,228.513 179.602,228.165 180.222 C 227.816 180.841,227.532 181.538,227.532 181.769 C 227.532 182.000,227.176 182.457,226.741 182.784 C 226.305 183.111,225.949 183.629,225.949 183.936 C 225.949 184.243,225.807 184.494,225.633 184.494 C 225.459 184.494,225.316 184.685,225.316 184.920 C 225.316 185.521,224.442 187.202,223.892 187.658 C 223.343 188.115,222.468 189.796,222.468 190.397 C 222.468 190.631,222.326 190.823,222.152 190.823 C 221.978 190.823,221.835 191.097,221.835 191.433 C 221.835 191.768,221.479 192.323,221.044 192.665 C 220.261 193.281,219.882 195.253,220.546 195.253 C 220.864 195.253,221.835 197.025,221.835 197.605 C 221.835 197.801,222.120 198.167,222.468 198.418 C 222.816 198.669,223.101 199.112,223.101 199.403 C 223.101 199.694,223.315 200.014,223.576 200.114 C 223.837 200.215,224.051 200.517,224.051 200.786 C 224.051 201.355,224.608 202.392,225.396 203.287 C 225.700 203.633,225.949 204.175,225.949 204.490 C 225.949 204.805,226.092 205.063,226.266 205.063 C 226.440 205.063,226.582 205.292,226.582 205.572 C 226.582 205.851,226.938 206.360,227.373 206.702 C 227.809 207.044,228.165 207.523,228.165 207.767 C 228.165 208.010,228.449 208.716,228.797 209.335 C 229.146 209.955,229.430 210.637,229.430 210.851 C 229.430 211.065,229.701 211.409,230.032 211.616 C 230.670 212.014,231.646 213.730,231.646 214.454 C 231.646 214.692,232.002 215.049,232.437 215.247 C 232.872 215.446,233.228 215.850,233.228 216.146 C 233.228 216.830,235.145 220.570,235.496 220.570 C 235.641 220.570,235.759 220.839,235.759 221.169 C 235.759 221.498,235.973 221.850,236.234 221.950 C 236.495 222.050,236.709 222.420,236.709 222.772 C 236.709 223.124,236.994 223.590,237.342 223.808 C 237.690 224.025,237.975 224.445,237.975 224.741 C 237.975 225.037,238.117 225.367,238.291 225.475 C 238.465 225.582,238.608 225.947,238.608 226.284 C 238.608 226.622,238.750 226.899,238.924 226.899 C 239.098 226.899,239.241 227.127,239.241 227.407 C 239.241 227.687,239.597 228.195,240.032 228.538 C 240.467 228.880,240.823 229.359,240.823 229.602 C 240.823 229.845,241.108 230.551,241.456 231.171 C 241.804 231.791,242.089 232.473,242.089 232.687 C 242.089 232.901,242.359 233.245,242.690 233.451 C 243.267 233.812,244.304 235.543,244.304 236.147 C 244.304 236.546,245.132 237.342,245.547 237.342 C 245.733 237.342,245.886 237.557,245.886 237.821 C 245.886 238.084,246.013 238.547,246.168 238.849 C 246.323 239.151,246.773 240.075,247.167 240.902 C 247.562 241.729,248.004 242.405,248.151 242.405 C 248.298 242.405,248.418 242.690,248.418 243.038 C 248.418 243.386,248.550 243.671,248.711 243.671 C 249.035 243.671,250.000 245.448,250.000 246.044 C 250.000 246.251,250.285 246.679,250.633 246.994 C 250.981 247.309,251.266 247.829,251.266 248.150 C 251.266 248.471,251.408 248.734,251.582 248.734 C 251.756 248.734,251.899 249.005,251.899 249.336 C 251.899 249.722,252.243 250.058,252.857 250.272 C 253.679 250.559,253.787 250.722,253.614 251.411 C 253.489 251.910,253.546 252.215,253.763 252.215 C 253.956 252.215,254.114 252.407,254.114 252.641 C 254.114 253.242,254.988 254.923,255.538 255.380 C 256.065 255.817,256.962 257.508,256.962 258.065 C 256.962 258.270,257.323 258.631,257.764 258.867 C 258.205 259.103,258.499 259.472,258.416 259.688 C 258.333 259.904,258.471 260.251,258.721 260.459 C 258.972 260.667,259.177 261.011,259.177 261.224 C 259.177 261.796,260.069 263.482,260.608 263.930 C 260.865 264.143,261.076 264.585,261.076 264.912 C 261.076 265.239,261.218 265.506,261.392 265.506 C 261.566 265.506,261.709 265.702,261.709 265.942 C 261.709 266.182,261.922 266.555,262.184 266.772 C 262.445 266.989,262.658 267.416,262.658 267.722 C 262.658 268.027,262.869 268.452,263.126 268.665 C 263.669 269.115,264.557 270.800,264.557 271.378 C 264.557 271.596,264.974 271.919,265.483 272.096 C 266.201 272.347,266.371 272.564,266.240 273.065 C 265.794 274.774,263.184 274.684,312.952 274.684 L 358.861 274.684 358.861 273.622 C 358.861 272.934,358.588 272.266,358.085 271.723 C 357.658 271.263,357.395 270.886,357.501 270.886 C 357.607 270.886,357.486 270.637,357.232 270.332 C 356.978 270.028,356.435 269.102,356.026 268.275 C 355.616 267.449,355.160 266.772,355.014 266.772 C 354.867 266.772,354.747 266.503,354.747 266.173 C 354.747 265.844,354.544 265.496,354.297 265.401 C 354.049 265.306,353.800 264.899,353.743 264.497 C 353.675 264.020,353.391 263.731,352.927 263.665 C 352.355 263.583,352.251 263.418,352.399 262.829 C 352.500 262.425,352.429 261.999,352.241 261.883 C 352.053 261.767,351.899 261.398,351.899 261.063 C 351.899 260.673,351.606 260.382,351.081 260.250 C 350.487 260.101,350.305 259.887,350.416 259.464 C 350.499 259.145,350.369 258.719,350.126 258.517 C 349.882 258.315,349.684 257.891,349.684 257.574 C 349.684 257.257,349.383 256.788,349.016 256.531 C 348.649 256.274,348.434 255.926,348.538 255.757 C 348.642 255.589,348.515 255.275,348.256 255.060 C 347.997 254.845,347.785 254.402,347.785 254.075 C 347.785 253.748,347.639 253.481,347.462 253.481 C 347.284 253.481,346.976 253.125,346.778 252.690 C 346.571 252.237,346.152 251.899,345.796 251.899 C 345.274 251.899,345.205 251.746,345.364 250.949 C 345.471 250.414,345.419 250.000,345.245 250.000 C 345.076 250.000,344.937 249.729,344.937 249.398 C 344.937 249.014,344.593 248.676,343.987 248.465 C 342.985 248.116,342.826 247.807,343.368 247.265 C 343.597 247.036,343.548 246.811,343.210 246.530 C 342.941 246.307,342.722 245.873,342.722 245.565 C 342.722 245.226,342.397 244.924,341.900 244.799 C 341.226 244.630,341.111 244.458,341.264 243.848 C 341.390 243.349,341.296 243.044,340.979 242.923 C 340.719 242.823,340.506 242.449,340.506 242.091 C 340.506 241.681,340.201 241.324,339.681 241.126 C 338.997 240.866,338.922 240.732,339.245 240.343 C 339.567 239.955,339.527 239.873,339.016 239.873 C 338.147 239.873,337.972 239.604,338.293 238.760 C 338.498 238.222,338.451 237.982,338.115 237.853 C 337.864 237.757,337.658 237.456,337.658 237.186 C 337.658 236.915,337.299 236.557,336.860 236.390 C 336.206 236.141,336.098 235.942,336.261 235.290 C 336.385 234.798,336.327 234.494,336.110 234.494 C 335.917 234.494,335.759 234.254,335.759 233.960 C 335.759 233.667,335.439 233.074,335.047 232.643 C 334.656 232.213,334.513 231.963,334.731 232.088 C 334.949 232.213,335.127 232.161,335.127 231.973 C 335.127 231.784,334.699 231.544,334.177 231.440 C 333.167 231.238,333.027 231.024,333.558 230.493 C 333.787 230.264,333.738 230.039,333.399 229.758 C 333.131 229.535,332.911 229.086,332.911 228.759 C 332.911 228.424,332.689 228.165,332.403 228.165 C 332.089 228.165,331.962 227.989,332.070 227.706 C 332.194 227.383,332.094 227.306,331.733 227.444 C 331.358 227.588,331.271 227.507,331.411 227.143 C 331.537 226.812,331.386 226.588,330.962 226.477 C 330.505 226.358,330.377 226.140,330.513 225.711 C 330.767 224.912,329.815 223.060,329.047 222.859 C 328.592 222.740,328.480 222.514,328.613 221.984 C 328.731 221.515,328.630 221.206,328.321 221.087 C 328.061 220.988,327.848 220.648,327.848 220.333 C 327.848 220.018,327.566 219.557,327.222 219.309 C 326.775 218.986,326.704 218.791,326.976 218.623 C 327.345 218.395,327.253 218.340,325.633 217.827 C 325.237 217.701,325.254 217.605,325.742 217.247 C 326.305 216.832,326.302 216.797,325.663 216.250 C 325.298 215.937,325.000 215.561,325.000 215.413 C 325.000 215.003,324.149 214.242,323.678 214.230 C 323.415 214.224,323.488 214.047,323.874 213.756 C 324.461 213.312,324.448 213.291,323.597 213.291 C 322.775 213.291,322.721 213.217,322.896 212.342 C 323.003 211.806,322.951 211.392,322.777 211.392 C 322.607 211.392,322.468 211.136,322.468 210.823 C 322.468 210.094,321.868 209.494,321.139 209.494 C 320.501 209.494,320.404 209.153,320.899 208.657 C 321.128 208.429,321.080 208.204,320.741 207.923 C 320.473 207.700,320.253 207.265,320.253 206.957 C 320.253 206.649,320.040 206.315,319.778 206.215 C 319.517 206.114,319.304 205.811,319.304 205.540 C 319.304 205.269,318.936 204.908,318.487 204.737 C 317.665 204.424,317.583 203.548,318.394 203.744 C 318.659 203.808,318.569 203.561,318.164 203.112 C 317.799 202.706,317.406 202.111,317.292 201.790 C 317.179 201.468,316.790 201.128,316.429 201.034 C 315.998 200.921,315.821 200.674,315.915 200.315 C 316.009 199.954,315.883 199.780,315.545 199.805 C 315.204 199.829,315.024 199.577,315.010 199.051 C 314.998 198.616,314.878 197.975,314.742 197.627 C 314.607 197.278,314.443 196.816,314.378 196.598 C 314.313 196.381,313.971 196.203,313.618 196.203 C 312.942 196.203,312.716 195.392,313.334 195.186 C 313.559 195.111,313.472 194.846,313.098 194.473 C 312.450 193.825,311.829 192.862,311.526 192.039 C 311.421 191.750,311.057 191.442,310.718 191.353 C 310.232 191.226,310.145 191.018,310.306 190.374 C 310.428 189.888,310.378 189.557,310.183 189.557 C 310.002 189.557,309.809 189.237,309.753 188.845 C 309.697 188.453,309.325 187.991,308.925 187.816 C 308.452 187.611,308.248 187.306,308.341 186.946 C 308.437 186.576,308.303 186.392,307.935 186.392 C 307.121 186.392,306.953 186.086,307.376 185.368 C 307.671 184.867,307.667 184.696,307.358 184.584 C 307.140 184.505,306.962 184.182,306.962 183.865 C 306.962 183.502,306.583 183.155,305.934 182.925 C 304.948 182.576,304.931 182.541,305.519 182.103 C 305.857 181.851,305.988 181.646,305.810 181.646 C 305.632 181.646,305.291 181.254,305.051 180.775 C 304.812 180.297,304.418 179.665,304.176 179.371 C 303.934 179.078,303.830 178.684,303.946 178.497 C 304.071 178.294,303.765 178.079,303.186 177.963 C 302.155 177.757,302.012 177.545,302.545 177.012 C 302.774 176.783,302.725 176.558,302.387 176.277 C 302.118 176.054,301.899 175.666,301.899 175.413 C 301.899 174.773,301.187 174.130,300.670 174.302 C 300.405 174.390,300.299 174.277,300.396 174.011 C 300.483 173.772,300.725 173.615,300.933 173.663 C 301.142 173.711,301.223 173.604,301.112 173.426 C 301.002 173.247,300.549 173.101,300.105 173.101 C 299.414 173.101,299.326 172.993,299.487 172.351 C 299.729 171.387,298.911 169.740,298.083 169.524 C 297.574 169.391,297.485 169.190,297.648 168.539 C 297.776 168.028,297.722 167.722,297.503 167.722 C 297.310 167.722,297.152 167.452,297.152 167.122 C 297.152 166.793,296.949 166.446,296.702 166.351 C 296.454 166.256,296.205 165.849,296.148 165.447 C 296.080 164.970,295.796 164.680,295.332 164.614 C 294.596 164.509,294.346 163.752,294.979 163.541 C 295.214 163.462,295.160 163.243,294.821 162.904 C 294.536 162.620,294.304 162.186,294.304 161.940 C 294.304 161.695,293.934 161.325,293.482 161.119 C 292.956 160.880,292.724 160.576,292.839 160.277 C 292.962 159.957,292.810 159.810,292.356 159.810 C 291.790 159.810,291.721 159.673,291.880 158.873 C 291.984 158.358,291.930 157.851,291.762 157.747 C 291.593 157.643,291.456 157.281,291.456 156.943 C 291.456 156.606,291.313 156.311,291.139 156.290 C 290.965 156.268,290.645 156.232,290.427 156.209 C 290.210 156.187,290.028 155.851,290.023 155.464 C 290.017 155.077,289.839 154.586,289.627 154.374 C 289.414 154.161,289.241 153.731,289.241 153.418 C 289.241 153.104,289.098 152.848,288.924 152.848 C 288.750 152.848,288.608 152.559,288.608 152.205 C 288.608 151.852,288.430 151.509,288.212 151.444 C 286.533 150.944,286.516 150.930,287.101 150.498 C 287.621 150.116,287.616 150.060,287.022 149.523 C 286.676 149.209,286.392 148.762,286.392 148.530 C 286.392 148.297,286.108 147.929,285.759 147.711 C 285.411 147.494,285.127 147.137,285.127 146.918 C 285.127 146.698,285.020 146.517,284.889 146.514 C 284.115 146.498,283.750 145.926,284.183 145.405 C 284.562 144.948,284.548 144.834,284.083 144.574 C 283.787 144.408,283.544 143.997,283.544 143.661 C 283.544 143.273,283.255 142.978,282.753 142.851 C 281.894 142.636,281.780 142.397,282.292 141.885 C 282.521 141.656,282.472 141.431,282.134 141.150 C 281.865 140.928,281.646 140.478,281.646 140.151 C 281.646 139.824,281.500 139.557,281.321 139.557 C 281.143 139.557,280.862 139.201,280.696 138.766 C 280.531 138.331,280.187 137.975,279.932 137.975 C 279.271 137.975,278.997 137.390,279.419 136.881 C 279.635 136.620,279.659 136.375,279.479 136.264 C 279.022 135.982,277.865 133.632,278.078 133.420 C 278.181 133.317,277.809 133.141,277.250 133.029 C 276.325 132.844,276.252 132.745,276.433 131.919 C 276.557 131.358,276.502 131.013,276.291 131.013 C 276.103 131.013,275.949 130.752,275.949 130.433 C 275.949 130.115,275.593 129.663,275.158 129.430 C 274.330 128.987,274.105 128.481,274.736 128.481 C 274.939 128.481,275.000 128.376,274.872 128.248 C 274.744 128.119,274.400 128.013,274.107 128.010 C 273.721 128.007,273.600 127.775,273.663 127.160 C 273.711 126.694,273.605 126.223,273.426 126.113 C 273.247 126.002,273.101 125.638,273.101 125.304 C 273.101 124.914,272.808 124.622,272.286 124.491 C 271.630 124.326,271.506 124.146,271.651 123.569 C 271.769 123.097,271.669 122.789,271.359 122.670 C 271.099 122.570,270.886 122.292,270.886 122.052 C 270.886 121.194,269.881 119.620,269.333 119.620 C 268.516 119.620,268.344 119.314,268.769 118.619 C 269.080 118.111,269.049 117.948,268.592 117.688 C 268.287 117.515,268.038 117.175,268.038 116.933 C 268.038 116.690,267.738 116.281,267.371 116.024 C 267.004 115.767,266.792 115.413,266.901 115.238 C 267.009 115.063,266.799 114.824,266.433 114.708 C 265.925 114.547,265.813 114.324,265.955 113.755 C 266.058 113.347,265.999 112.925,265.824 112.817 C 265.649 112.709,265.506 112.347,265.506 112.013 C 265.506 111.623,265.213 111.331,264.689 111.199 C 264.094 111.050,263.913 110.836,264.023 110.414 C 264.107 110.095,263.976 109.668,263.733 109.467 C 263.490 109.265,263.291 108.832,263.291 108.506 C 263.291 108.179,263.149 107.911,262.975 107.911 C 262.801 107.911,262.658 107.622,262.658 107.269 C 262.658 106.915,262.445 106.559,262.184 106.477 C 261.922 106.396,261.489 106.260,261.221 106.176 C 260.841 106.056,260.806 105.885,261.063 105.404 C 261.254 105.048,261.273 104.711,261.110 104.609 C 260.698 104.355,259.507 101.991,259.696 101.802 C 259.784 101.714,259.424 101.548,258.896 101.432 C 258.033 101.242,257.955 101.127,258.122 100.294 C 258.239 99.709,258.176 99.367,257.951 99.367 C 257.755 99.367,257.595 99.079,257.595 98.727 C 257.595 98.352,257.268 97.939,256.804 97.727 C 255.959 97.342,255.788 96.963,256.371 96.769 C 256.598 96.693,256.514 96.432,256.143 96.062 C 255.451 95.370,254.747 94.083,254.747 93.511 C 254.747 93.288,254.391 93.017,253.956 92.908 C 253.130 92.701,252.930 92.271,253.496 91.921 C 253.720 91.782,253.699 91.560,253.430 91.236 C 252.953 90.662,252.362 89.663,251.920 88.687 C 251.734 88.276,251.316 87.975,250.932 87.975 C 250.357 87.975,250.295 87.845,250.475 87.025 C 250.606 86.428,250.557 86.076,250.342 86.076 C 250.154 86.076,250.000 85.791,250.000 85.443 C 250.000 85.095,249.858 84.810,249.684 84.810 C 249.509 84.810,249.367 84.601,249.367 84.345 C 249.367 84.062,249.182 83.952,248.892 84.063 C 248.631 84.163,248.418 84.087,248.418 83.895 C 248.418 83.702,248.585 83.544,248.789 83.544 C 249.004 83.544,248.903 83.243,248.552 82.832 C 247.793 81.945,247.152 80.813,247.152 80.361 C 247.152 79.814,246.396 79.208,245.914 79.368 C 245.600 79.473,245.523 79.325,245.647 78.851 C 245.745 78.476,245.629 78.029,245.379 77.821 C 245.136 77.619,244.937 77.280,244.937 77.067 C 244.937 76.249,243.917 74.684,243.384 74.684 C 242.565 74.684,242.383 74.366,242.778 73.629 C 243.037 73.145,243.034 72.942,242.770 72.854 C 242.438 72.743,241.780 71.508,241.341 70.174 C 241.241 69.869,240.894 69.620,240.569 69.620 C 239.748 69.620,239.528 69.316,239.878 68.663 C 240.090 68.267,240.040 67.991,239.709 67.716 C 239.451 67.502,239.241 67.139,239.241 66.910 C 239.241 66.680,238.940 66.281,238.573 66.024 C 238.206 65.767,237.994 65.415,238.102 65.241 C 238.209 65.067,238.082 64.710,237.819 64.447 C 237.557 64.184,237.342 63.745,237.342 63.472 C 237.342 63.198,237.209 62.975,237.047 62.975 C 236.885 62.975,236.707 62.654,236.652 62.263 C 236.374 60.306,233.711 62.688,233.948 64.681 C 233.987 65.010,233.841 65.343,233.623 65.420 C 233.404 65.497,233.219 65.301,233.208 64.979 C 233.187 64.373,232.611 65.431,232.407 66.450 C 232.355 66.708,232.163 66.969,231.979 67.030 C 231.796 67.091,231.646 67.397,231.646 67.709 C 231.646 68.021,231.426 68.459,231.157 68.682 C 230.819 68.963,230.770 69.188,230.999 69.417 C 231.530 69.948,231.390 70.162,230.380 70.364 C 229.711 70.498,229.430 70.738,229.430 71.176 C 229.430 71.518,229.288 71.886,229.114 71.994 C 228.940 72.101,228.797 72.405,228.797 72.668 C 228.797 72.931,228.565 73.379,228.280 73.664 C 227.941 74.002,227.887 74.222,228.122 74.300 C 228.777 74.519,228.494 75.028,227.532 75.364 C 226.926 75.575,226.582 75.912,226.582 76.297 C 226.582 76.628,226.440 76.899,226.266 76.899 C 226.092 76.899,225.949 77.166,225.949 77.493 C 225.949 77.820,225.730 78.269,225.461 78.492 C 225.123 78.773,225.074 78.998,225.303 79.227 C 225.814 79.738,225.698 80.010,224.921 80.120 C 224.457 80.186,224.173 80.476,224.105 80.953 C 224.048 81.355,223.799 81.762,223.551 81.857 C 223.304 81.952,223.101 82.238,223.101 82.493 C 223.101 82.748,222.869 83.189,222.584 83.474 C 222.245 83.813,222.191 84.032,222.426 84.110 C 223.031 84.312,222.824 85.127,222.167 85.127 C 221.410 85.127,220.427 87.025,220.714 87.931 C 220.857 88.383,220.738 88.612,220.283 88.757 C 219.933 88.867,219.724 89.142,219.813 89.373 C 219.902 89.608,219.702 89.861,219.355 89.952 C 218.661 90.133,217.712 91.924,217.813 92.858 C 217.858 93.268,217.620 93.544,217.089 93.697 C 216.653 93.822,216.475 93.938,216.693 93.956 C 217.366 94.009,217.132 94.937,216.446 94.937 C 216.092 94.937,215.750 95.115,215.685 95.332 C 215.620 95.550,215.456 96.013,215.321 96.361 C 215.186 96.709,215.065 97.337,215.053 97.756 C 215.027 98.673,214.348 99.005,214.147 98.199 C 214.068 97.884,214.046 98.076,214.097 98.625 C 214.167 99.366,214.045 99.661,213.626 99.770 C 212.857 99.971,211.989 101.802,212.222 102.730 C 212.374 103.334,212.286 103.481,211.773 103.481 C 211.278 103.481,211.175 103.632,211.312 104.156 C 211.439 104.641,211.364 104.790,211.048 104.685 C 210.528 104.511,209.810 105.146,209.810 105.779 C 209.810 106.024,209.703 106.331,209.573 106.463 C 209.442 106.594,209.335 107.081,209.335 107.544 C 209.335 108.163,209.174 108.386,208.728 108.387 C 208.129 108.389,207.031 109.860,206.985 110.722 C 206.972 110.963,206.655 111.426,206.281 111.751 C 205.721 112.237,205.692 112.342,206.122 112.342 C 206.410 112.342,206.646 112.555,206.646 112.816 C 206.646 113.082,206.363 113.291,206.005 113.291 C 205.613 113.291,205.247 113.598,205.063 114.082 C 204.898 114.517,204.617 114.873,204.438 114.873 C 204.260 114.873,204.114 115.087,204.114 115.348 C 204.114 115.609,204.256 115.823,204.430 115.823 C 204.604 115.823,204.747 116.036,204.747 116.297 C 204.747 116.602,204.441 116.772,203.892 116.772 C 203.228 116.772,203.122 116.857,203.418 117.152 C 203.980 117.715,203.886 117.947,203.006 118.168 C 202.504 118.294,202.215 118.590,202.215 118.978 C 202.215 119.314,201.973 119.725,201.676 119.890 C 201.229 120.141,201.207 120.275,201.545 120.683 C 202.028 121.265,201.762 121.835,201.008 121.835 C 200.250 121.835,198.328 125.417,198.822 125.911 C 199.092 126.180,198.927 126.368,198.167 126.654 C 197.602 126.868,197.152 127.264,197.152 127.548 C 197.152 127.829,197.045 128.167,196.915 128.298 C 196.784 128.430,196.677 128.915,196.677 129.376 C 196.677 129.991,196.515 130.217,196.071 130.219 C 195.434 130.222,194.367 131.725,194.327 132.674 C 194.314 132.979,194.150 133.228,193.962 133.228 C 193.747 133.228,193.698 133.580,193.829 134.177 C 194.009 134.997,193.947 135.127,193.372 135.127 C 192.953 135.127,192.594 135.420,192.405 135.918 C 192.240 136.353,191.962 136.709,191.788 136.709 C 191.585 136.709,191.575 136.980,191.760 137.467 C 192.091 138.338,191.922 138.608,191.048 138.608 C 190.537 138.608,190.497 138.689,190.818 139.077 C 191.141 139.466,191.067 139.600,190.382 139.860 C 189.877 140.052,189.557 140.417,189.557 140.799 C 189.557 141.143,189.314 141.560,189.018 141.726 C 188.571 141.976,188.548 142.111,188.887 142.519 C 189.329 143.052,189.103 143.716,188.505 143.642 C 187.644 143.535,187.285 143.699,187.447 144.122 C 187.543 144.371,187.415 144.744,187.165 144.952 C 186.914 145.160,186.709 145.505,186.709 145.718 C 186.709 145.930,186.425 146.361,186.079 146.675 C 185.485 147.212,185.480 147.268,186.000 147.656 C 186.501 148.030,186.457 148.100,185.522 148.431 C 184.850 148.670,184.494 149.005,184.494 149.398 C 184.494 149.729,184.340 150.000,184.152 150.000 C 183.939 150.000,183.887 150.348,184.014 150.925 C 184.189 151.722,184.116 151.864,183.488 151.953 C 182.999 152.023,182.543 152.492,182.103 153.378 C 181.742 154.104,181.271 154.911,181.056 155.169 C 180.791 155.488,180.772 155.706,180.997 155.845 C 181.556 156.190,181.369 156.646,180.538 156.962 C 180.103 157.127,179.747 157.484,179.747 157.755 C 179.747 158.026,179.536 158.329,179.278 158.428 C 178.921 158.565,178.887 158.753,179.134 159.215 C 179.545 159.983,179.270 160.443,178.399 160.443 C 177.872 160.443,177.806 160.527,178.101 160.823 C 178.661 161.383,178.567 161.653,177.772 161.766 C 177.357 161.825,177.018 162.130,176.954 162.500 C 176.894 162.848,176.616 163.311,176.335 163.530 C 175.939 163.838,175.910 164.011,176.204 164.305 C 176.790 164.891,176.665 165.094,175.582 165.311 C 175.032 165.421,174.667 165.595,174.770 165.698 C 175.002 165.930,173.854 168.177,173.245 168.683 C 172.707 169.129,171.835 170.815,171.835 171.409 C 171.835 171.644,171.682 171.835,171.494 171.835 C 171.279 171.835,171.230 172.188,171.361 172.785 C 171.538 173.591,171.474 173.734,170.941 173.734 C 170.446 173.734,170.351 173.885,170.496 174.446 C 170.649 175.040,170.603 175.096,170.219 174.781 C 169.841 174.472,169.681 174.585,169.327 175.414 C 169.089 175.970,168.693 176.659,168.446 176.946 C 168.143 177.298,168.107 177.537,168.334 177.677 C 168.852 177.997,168.735 178.390,168.071 178.564 C 167.386 178.743,166.448 180.543,166.547 181.487 C 166.594 181.932,166.397 182.151,165.883 182.224 C 165.335 182.302,165.236 182.427,165.485 182.728 C 165.733 183.026,165.616 183.220,165.029 183.488 C 164.577 183.694,164.241 184.113,164.241 184.471 C 164.241 184.814,163.998 185.231,163.702 185.397 C 163.246 185.652,163.228 185.777,163.584 186.206 C 163.951 186.648,163.877 186.758,163.015 187.059 C 162.471 187.248,162.025 187.581,162.025 187.799 C 162.025 188.494,161.055 190.168,160.342 190.701 C 159.810 191.099,159.784 191.172,160.229 191.021 C 160.642 190.881,160.776 190.964,160.703 191.315 C 160.647 191.585,160.516 191.762,160.413 191.710 C 160.048 191.525,159.177 192.489,159.177 193.077 C 159.177 193.404,159.023 193.671,158.836 193.671 C 158.621 193.671,158.571 194.023,158.703 194.620 C 158.883 195.440,158.820 195.570,158.246 195.570 C 157.844 195.570,157.439 195.882,157.221 196.361 C 157.023 196.796,156.741 197.152,156.595 197.152 C 156.449 197.152,156.329 197.419,156.329 197.746 C 156.329 198.073,156.109 198.523,155.839 198.747 C 155.477 199.048,155.448 199.213,155.727 199.386 C 156.287 199.732,155.815 200.633,155.073 200.633 C 154.638 200.633,154.430 200.841,154.430 201.276 C 154.430 201.629,154.217 202.001,153.956 202.101 C 153.695 202.201,153.481 202.552,153.481 202.882 C 153.481 203.211,153.327 203.481,153.139 203.481 C 152.924 203.481,152.875 203.833,153.006 204.430 C 153.184 205.239,153.121 205.380,152.580 205.380 C 151.962 205.380,150.949 206.874,150.949 207.786 C 150.949 208.012,150.720 208.325,150.439 208.482 C 150.036 208.708,150.000 208.903,150.269 209.406 C 150.653 210.123,150.468 210.443,149.668 210.443 C 149.369 210.443,149.034 210.692,148.924 210.997 C 148.657 211.735,147.939 212.947,147.520 213.366 C 147.290 213.596,147.283 213.894,147.497 214.294 C 147.726 214.721,147.700 214.917,147.403 215.006 C 146.132 215.389,145.888 215.512,145.961 215.735 C 146.076 216.087,144.306 219.620,144.014 219.620 C 143.783 219.620,143.062 220.968,141.983 223.418 C 141.715 224.027,141.202 224.735,140.843 224.991 C 140.484 225.247,140.190 225.634,140.190 225.851 C 140.190 226.069,139.905 226.754,139.557 227.373 C 139.209 227.993,138.924 228.699,138.924 228.942 C 138.924 229.186,138.568 229.664,138.133 230.007 C 137.698 230.349,137.342 230.858,137.342 231.137 C 137.342 231.417,137.199 231.646,137.025 231.646 C 136.851 231.646,136.709 231.837,136.709 232.072 C 136.709 232.673,135.835 234.354,135.285 234.810 C 134.735 235.266,133.861 236.948,133.861 237.549 C 133.861 237.783,133.718 237.975,133.544 237.975 C 133.370 237.975,133.228 238.237,133.228 238.559 C 133.228 238.880,132.943 239.400,132.595 239.715 C 132.247 240.030,131.962 240.484,131.962 240.724 C 131.962 240.963,131.748 241.241,131.487 241.341 C 131.226 241.441,131.013 241.785,131.013 242.104 C 131.013 242.423,130.870 242.772,130.696 242.880 C 130.522 242.987,130.380 243.320,130.380 243.620 C 130.380 243.919,130.095 244.369,129.747 244.620 C 129.399 244.871,129.114 245.298,129.114 245.569 C 129.114 247.131,128.898 247.152,112.968 247.152 C 98.904 247.152,98.112 247.122,98.388 246.598 C 98.549 246.294,98.898 245.546,99.162 244.937 C 99.427 244.328,99.938 243.620,100.297 243.364 C 100.656 243.108,100.949 242.720,100.949 242.503 C 100.949 242.286,101.234 241.601,101.582 240.981 C 101.930 240.361,102.215 239.655,102.215 239.412 C 102.215 239.169,102.571 238.690,103.006 238.348 C 103.441 238.005,103.797 237.497,103.797 237.217 C 103.797 236.938,103.940 236.709,104.114 236.709 C 104.288 236.709,104.430 236.517,104.430 236.283 C 104.430 235.565,105.409 233.848,106.044 233.451 C 106.375 233.245,106.646 232.754,106.646 232.361 C 106.646 231.967,106.788 231.646,106.962 231.646 C 107.136 231.646,107.278 231.361,107.278 231.013 C 107.278 230.665,107.421 230.380,107.595 230.380 C 107.769 230.380,107.911 230.158,107.911 229.886 C 107.911 229.615,108.054 229.481,108.228 229.589 C 108.402 229.696,108.544 229.584,108.544 229.339 C 108.544 228.690,109.491 226.899,109.833 226.899 C 109.995 226.899,110.127 226.636,110.127 226.315 C 110.127 225.994,110.411 225.473,110.759 225.158 C 111.108 224.843,111.392 224.323,111.392 224.002 C 111.392 223.680,111.535 223.418,111.709 223.418 C 111.883 223.418,112.025 223.128,112.025 222.775 C 112.025 222.421,112.239 222.050,112.500 221.950 C 112.761 221.850,112.975 221.498,112.975 221.169 C 112.975 220.839,113.091 220.570,113.232 220.570 C 113.556 220.570,114.873 218.132,114.873 217.533 C 114.873 217.289,115.016 217.089,115.190 217.089 C 115.364 217.089,115.506 216.824,115.506 216.500 C 115.506 216.176,115.862 215.644,116.297 215.317 C 116.733 214.991,117.089 214.568,117.089 214.377 C 117.089 213.799,118.467 211.268,119.225 210.455 C 119.616 210.035,119.937 209.433,119.937 209.118 C 119.937 208.802,120.079 208.544,120.253 208.544 C 120.427 208.544,120.570 208.286,120.570 207.971 C 120.570 207.656,120.826 207.122,121.139 206.784 C 121.453 206.447,121.804 205.922,121.921 205.617 C 122.037 205.313,122.279 205.063,122.458 205.063 C 122.638 205.063,122.785 204.854,122.785 204.598 C 122.785 204.342,123.093 203.595,123.469 202.937 C 123.846 202.279,124.355 201.349,124.600 200.870 C 124.846 200.392,125.178 200.000,125.340 200.000 C 125.501 200.000,125.633 199.715,125.633 199.367 C 125.633 199.019,125.775 198.734,125.949 198.734 C 126.123 198.734,126.266 198.467,126.266 198.140 C 126.266 197.813,126.476 197.371,126.734 197.157 C 127.293 196.693,128.165 195.016,128.165 194.403 C 128.165 194.164,128.378 193.886,128.639 193.785 C 128.900 193.685,129.114 193.365,129.114 193.074 C 129.114 192.783,129.399 192.340,129.747 192.089 C 130.095 191.838,130.380 191.472,130.380 191.276 C 130.380 190.738,131.340 188.924,131.625 188.924 C 131.762 188.924,131.812 188.596,131.735 188.195 C 131.630 187.646,131.797 187.374,132.412 187.094 C 132.897 186.873,133.228 186.463,133.228 186.083 C 133.228 185.731,133.370 185.443,133.544 185.443 C 133.718 185.443,133.861 185.176,133.861 184.849 C 133.861 184.522,134.081 184.072,134.350 183.849 C 134.619 183.626,134.775 183.277,134.698 183.075 C 134.620 182.873,134.813 182.548,135.126 182.352 C 135.736 181.971,136.709 180.243,136.709 179.540 C 136.709 179.306,136.829 179.114,136.975 179.114 C 137.122 179.114,137.511 178.616,137.839 178.006 C 138.167 177.397,138.545 176.899,138.680 176.899 C 138.814 176.899,138.924 176.707,138.924 176.473 C 138.924 175.869,139.799 174.189,140.355 173.729 C 140.612 173.515,140.823 173.068,140.823 172.736 C 140.823 172.404,141.036 172.050,141.297 171.950 C 141.559 171.850,141.772 171.498,141.772 171.169 C 141.772 170.839,141.930 170.570,142.123 170.570 C 142.340 170.570,142.397 170.265,142.274 169.773 C 142.110 169.121,142.219 168.922,142.872 168.674 C 143.312 168.507,143.671 168.148,143.671 167.878 C 143.671 167.607,143.884 167.303,144.146 167.203 C 144.407 167.103,144.620 166.798,144.620 166.526 C 144.620 166.254,144.856 165.770,145.144 165.452 C 145.457 165.106,145.521 164.873,145.302 164.873 C 144.597 164.873,144.945 163.991,145.728 163.794 C 146.163 163.685,146.519 163.401,146.519 163.163 C 146.519 162.487,147.310 161.129,148.107 160.438 C 148.687 159.935,148.727 159.810,148.308 159.810 C 148.020 159.810,147.785 159.573,147.785 159.283 C 147.785 158.993,147.875 158.845,147.985 158.955 C 148.345 159.316,149.367 158.536,149.367 157.900 C 149.367 157.558,149.521 157.278,149.709 157.278 C 149.924 157.278,149.973 156.926,149.842 156.329 C 149.665 155.523,149.728 155.380,150.262 155.380 C 150.720 155.380,150.848 155.219,150.735 154.788 C 150.621 154.352,150.796 154.142,151.398 153.991 C 151.922 153.859,152.215 153.567,152.215 153.177 C 152.215 152.843,152.369 152.474,152.557 152.358 C 152.745 152.241,152.812 151.800,152.706 151.376 C 152.544 150.728,152.665 150.554,153.471 150.272 C 153.998 150.089,154.357 149.821,154.269 149.678 C 154.180 149.535,154.323 149.203,154.586 148.941 C 154.848 148.678,155.063 148.300,155.063 148.101 C 155.063 147.902,155.296 147.507,155.580 147.223 C 155.919 146.884,155.974 146.664,155.739 146.586 C 155.122 146.380,155.347 145.570,156.020 145.570 C 156.406 145.570,156.776 145.267,156.950 144.809 C 157.109 144.391,157.391 143.955,157.575 143.841 C 157.760 143.727,157.911 143.372,157.911 143.053 C 157.911 142.734,158.149 142.382,158.439 142.270 C 158.841 142.116,158.879 141.980,158.597 141.698 C 158.070 141.171,158.138 140.920,158.857 140.732 C 159.203 140.642,159.627 140.198,159.798 139.746 C 159.970 139.294,160.253 138.924,160.427 138.924 C 160.631 138.924,160.641 138.652,160.455 138.165 C 160.125 137.296,160.293 137.025,161.163 137.025 C 161.542 137.025,161.715 136.865,161.616 136.607 C 161.528 136.377,161.726 136.020,162.057 135.813 C 162.388 135.607,162.658 135.172,162.658 134.846 C 162.658 134.521,162.874 134.076,163.137 133.858 C 163.502 133.554,163.530 133.357,163.254 133.025 C 162.966 132.678,163.096 132.520,163.900 132.240 C 164.453 132.047,164.831 131.814,164.740 131.723 C 164.541 131.524,165.428 129.856,166.231 128.917 C 166.751 128.310,166.757 128.226,166.295 128.049 C 165.726 127.831,165.983 127.111,166.561 127.303 C 167.034 127.461,167.722 126.766,167.722 126.130 C 167.722 125.857,167.875 125.633,168.063 125.633 C 168.278 125.633,168.327 125.281,168.196 124.684 C 168.019 123.877,168.082 123.734,168.616 123.734 C 169.074 123.734,169.203 123.574,169.090 123.142 C 168.976 122.706,169.151 122.496,169.752 122.345 C 170.219 122.228,170.570 121.915,170.570 121.617 C 170.570 121.329,170.805 120.834,171.093 120.515 C 171.407 120.169,171.470 119.937,171.252 119.937 C 170.623 119.937,170.853 119.041,171.537 118.823 C 171.895 118.710,172.319 118.273,172.479 117.853 C 172.638 117.432,172.915 117.089,173.093 117.089 C 173.272 117.089,173.418 116.865,173.418 116.591 C 173.418 116.318,173.650 115.861,173.935 115.577 C 174.274 115.238,174.328 115.019,174.093 114.940 C 173.475 114.734,173.702 113.924,174.377 113.924 C 174.731 113.924,175.097 113.675,175.191 113.370 C 175.286 113.066,175.501 112.558,175.671 112.243 C 175.841 111.927,175.892 111.393,175.785 111.056 C 175.634 110.580,175.742 110.443,176.266 110.443 C 176.782 110.443,176.897 110.303,176.753 109.849 C 176.619 109.427,176.749 109.207,177.203 109.089 C 177.553 108.997,177.976 108.566,178.141 108.131 C 178.307 107.696,178.600 107.242,178.793 107.123 C 179.050 106.964,179.048 106.789,178.786 106.473 C 178.334 105.928,178.676 105.335,179.375 105.450 C 179.667 105.499,179.869 105.360,179.826 105.142 C 179.782 104.925,179.898 104.747,180.082 104.747 C 180.266 104.747,180.328 104.603,180.220 104.428 C 180.112 104.253,180.246 104.024,180.518 103.920 C 180.790 103.815,181.013 103.478,181.013 103.169 C 181.013 102.861,181.228 102.430,181.491 102.212 C 181.857 101.909,181.884 101.712,181.609 101.380 C 181.321 101.033,181.448 100.875,182.238 100.600 C 182.864 100.381,183.228 100.040,183.228 99.671 C 183.228 99.350,183.370 99.000,183.544 98.892 C 183.718 98.785,183.861 98.481,183.861 98.218 C 183.861 97.955,184.068 97.532,184.322 97.278 C 184.576 97.025,184.713 96.634,184.627 96.411 C 184.542 96.188,184.833 95.812,185.274 95.576 C 185.715 95.339,186.076 94.885,186.076 94.567 C 186.076 94.248,186.230 93.987,186.418 93.987 C 186.630 93.987,186.683 93.639,186.556 93.063 C 186.381 92.265,186.454 92.124,187.085 92.034 C 187.487 91.977,187.816 91.759,187.816 91.551 C 187.816 91.342,187.994 90.993,188.212 90.775 C 188.430 90.558,188.608 90.130,188.608 89.826 C 188.608 89.521,188.803 89.158,189.041 89.019 C 189.280 88.880,189.458 88.412,189.437 87.980 C 189.413 87.481,189.570 87.192,189.869 87.189 C 190.128 87.186,190.630 86.600,190.985 85.887 C 191.340 85.173,191.895 84.325,192.219 84.002 C 192.589 83.631,192.674 83.370,192.447 83.295 C 192.250 83.229,192.089 82.965,192.089 82.708 C 192.089 82.451,192.232 82.330,192.407 82.438 C 192.747 82.648,193.671 81.888,193.671 81.400 C 193.671 80.785,194.695 79.097,195.345 78.642 C 195.766 78.348,195.857 78.165,195.585 78.165 C 195.256 78.165,195.299 77.982,195.752 77.453 C 196.772 76.259,197.192 75.308,196.985 74.656 C 196.829 74.166,196.994 73.962,197.761 73.695 C 198.388 73.477,198.734 73.141,198.734 72.754 C 198.734 72.423,198.877 72.152,199.051 72.152 C 199.225 72.152,199.367 71.885,199.367 71.558 C 199.367 71.231,199.566 70.798,199.809 70.597 C 200.052 70.395,200.183 69.970,200.100 69.652 C 199.997 69.259,200.159 69.020,200.607 68.902 C 201.014 68.796,201.266 68.473,201.266 68.058 C 201.266 67.688,201.479 67.303,201.741 67.203 C 202.002 67.103,202.215 66.804,202.215 66.538 C 202.215 66.273,202.522 65.789,202.897 65.464 C 203.271 65.139,203.414 64.873,203.213 64.873 C 203.012 64.873,202.848 64.723,202.848 64.538 C 202.848 64.354,202.975 64.282,203.130 64.377 C 203.285 64.473,203.647 64.054,203.936 63.447 C 204.224 62.839,204.596 62.342,204.762 62.342 C 204.928 62.342,205.063 62.079,205.063 61.758 C 205.063 61.437,205.348 60.916,205.696 60.601 C 206.044 60.286,206.329 59.766,206.329 59.445 C 206.329 59.123,206.472 58.861,206.646 58.861 C 206.820 58.861,206.962 58.584,206.962 58.247 C 206.962 57.909,207.104 57.544,207.278 57.437 C 207.453 57.329,207.595 56.910,207.595 56.506 C 207.595 56.054,207.823 55.710,208.184 55.616 C 208.772 55.462,209.810 53.765,209.810 52.958 C 209.810 52.723,209.953 52.532,210.127 52.532 C 210.301 52.532,210.443 52.176,210.443 51.741 C 210.443 51.305,210.596 50.949,210.782 50.949 C 211.197 50.949,212.025 50.153,212.025 49.755 C 212.025 49.263,212.961 47.557,213.456 47.146 C 213.713 46.933,213.924 46.486,213.924 46.154 C 213.924 45.822,214.138 45.468,214.399 45.368 C 214.660 45.267,214.873 44.916,214.873 44.586 C 214.873 44.257,215.016 43.987,215.190 43.987 C 215.364 43.987,215.506 43.725,215.506 43.403 C 215.506 43.082,215.791 42.562,216.139 42.247 C 216.487 41.932,216.772 41.478,216.772 41.238 C 216.772 40.999,216.986 40.721,217.247 40.621 C 217.508 40.521,217.722 40.177,217.722 39.858 C 217.722 39.539,217.864 39.190,218.038 39.082 C 218.212 38.975,218.354 38.663,218.354 38.389 C 218.354 38.115,218.642 37.642,218.992 37.337 C 219.390 36.992,219.658 36.323,219.704 35.560 L 219.778 34.335 204.747 34.265 C 193.274 34.210,189.602 34.285,189.238 34.581 M173.465 169.778 C 173.465 169.944,173.312 170.130,173.125 170.193 C 172.938 170.255,172.785 170.069,172.785 169.778 C 172.785 169.488,172.938 169.302,173.125 169.364 C 173.312 169.427,173.465 169.613,173.465 169.778 M84.879 217.147 C 84.395 217.630,84.039 217.273,84.307 216.575 C 84.465 216.162,84.602 216.121,84.884 216.403 C 85.165 216.684,85.164 216.861,84.879 217.147 " class="colorfcfcfc svgShape"></path><path fill="#d6e0f0" fill-rule="evenodd" d="M219.823 87.561 C 219.466 87.918,219.606 88.291,220.095 88.291 C 220.356 88.291,220.570 88.157,220.570 87.993 C 220.570 87.594,220.075 87.309,219.823 87.561 M155.231 92.498 C 155.096 92.810,155.074 93.154,155.182 93.263 C 155.504 93.584,155.763 93.133,155.615 92.509 C 155.484 91.956,155.467 91.956,155.231 92.498 M217.168 92.298 C 216.611 92.523,216.674 93.354,217.247 93.354 C 217.511 93.354,217.722 93.073,217.722 92.722 C 217.722 92.373,217.686 92.100,217.642 92.114 C 217.599 92.127,217.385 92.210,217.168 92.298 M258.228 100.451 C 258.228 100.688,258.441 100.964,258.703 101.064 C 258.981 101.171,259.177 101.068,259.177 100.815 C 259.177 100.578,258.964 100.302,258.703 100.202 C 258.424 100.095,258.228 100.198,258.228 100.451 M211.561 102.308 C 211.425 102.620,211.403 102.964,211.512 103.073 C 211.833 103.394,212.092 102.943,211.944 102.319 C 211.813 101.766,211.796 101.766,211.561 102.308 M146.519 107.595 C 146.519 107.769,146.733 107.911,146.994 107.911 C 147.255 107.911,147.468 107.769,147.468 107.595 C 147.468 107.421,147.255 107.278,146.994 107.278 C 146.733 107.278,146.519 107.421,146.519 107.595 M175.949 111.224 C 175.949 111.507,176.135 111.618,176.424 111.507 C 176.685 111.407,176.899 111.198,176.899 111.042 C 176.899 110.887,176.685 110.759,176.424 110.759 C 176.163 110.759,175.949 110.969,175.949 111.224 M144.051 112.089 C 143.534 112.605,143.573 112.975,144.146 112.975 C 144.409 112.975,144.620 112.693,144.620 112.342 C 144.620 111.604,144.561 111.578,144.051 112.089 M235.505 114.622 C 234.924 115.203,235.055 115.823,235.759 115.823 C 236.413 115.823,236.570 115.326,236.133 114.638 C 235.939 114.333,235.798 114.329,235.505 114.622 M203.683 115.726 C 203.327 116.082,203.466 116.456,203.956 116.456 C 204.217 116.456,204.430 116.322,204.430 116.158 C 204.430 115.759,203.936 115.473,203.683 115.726 M141.143 117.398 C 140.870 117.908,140.897 117.990,141.290 117.839 C 141.555 117.737,141.772 117.455,141.772 117.213 C 141.772 116.595,141.536 116.664,141.143 117.398 M273.734 127.197 C 273.734 127.555,273.877 127.848,274.051 127.848 C 274.225 127.848,274.367 127.643,274.367 127.392 C 274.367 127.141,274.225 126.848,274.051 126.741 C 273.877 126.633,273.734 126.838,273.734 127.197 M160.759 137.816 C 160.759 138.078,160.902 138.291,161.076 138.291 C 161.250 138.291,161.392 138.078,161.392 137.816 C 161.392 137.555,161.250 137.342,161.076 137.342 C 160.902 137.342,160.759 137.555,160.759 137.816 M190.823 137.826 C 190.823 138.082,191.036 138.291,191.297 138.291 C 191.559 138.291,191.772 138.164,191.772 138.009 C 191.772 137.853,191.559 137.644,191.297 137.544 C 191.008 137.433,190.823 137.543,190.823 137.826 M252.848 145.374 C 252.848 145.635,252.991 145.937,253.165 146.044 C 253.339 146.152,253.481 146.026,253.481 145.765 C 253.481 145.504,253.339 145.203,253.165 145.095 C 252.991 144.987,252.848 145.113,252.848 145.374 M217.089 146.994 C 216.865 147.263,216.753 147.555,216.840 147.642 C 216.927 147.729,217.181 147.580,217.405 147.310 C 217.629 147.041,217.741 146.749,217.653 146.662 C 217.566 146.575,217.312 146.724,217.089 146.994 M213.924 152.047 C 213.924 152.330,214.110 152.441,214.399 152.330 C 214.660 152.229,214.873 152.020,214.873 151.865 C 214.873 151.709,214.660 151.582,214.399 151.582 C 214.138 151.582,213.924 151.791,213.924 152.047 M292.089 158.842 C 292.089 159.200,292.231 159.494,292.405 159.494 C 292.579 159.494,292.722 159.288,292.722 159.038 C 292.722 158.787,292.579 158.494,292.405 158.386 C 292.231 158.279,292.089 158.484,292.089 158.842 M178.165 159.626 C 178.165 159.901,178.390 160.127,178.666 160.127 C 179.224 160.127,179.127 159.445,178.540 159.250 C 178.334 159.181,178.165 159.350,178.165 159.626 M263.291 163.728 C 263.291 163.990,263.434 164.291,263.608 164.399 C 263.782 164.506,263.924 164.381,263.924 164.120 C 263.924 163.859,263.782 163.557,263.608 163.449 C 263.434 163.342,263.291 163.467,263.291 163.728 M299.684 172.162 C 299.684 172.505,299.897 172.785,300.158 172.785 C 300.419 172.785,300.633 172.586,300.633 172.344 C 300.633 172.102,300.419 171.821,300.158 171.721 C 299.835 171.597,299.684 171.738,299.684 172.162 M197.785 180.212 C 197.785 180.495,197.970 180.605,198.259 180.494 C 198.521 180.394,198.734 180.185,198.734 180.029 C 198.734 179.874,198.521 179.747,198.259 179.747 C 197.998 179.747,197.785 179.956,197.785 180.212 M165.506 181.461 C 165.506 181.737,165.732 181.962,166.007 181.962 C 166.566 181.962,166.469 181.281,165.882 181.085 C 165.675 181.016,165.506 181.185,165.506 181.461 M273.734 182.120 C 273.734 182.381,273.948 182.595,274.209 182.595 C 274.470 182.595,274.684 182.381,274.684 182.120 C 274.684 181.859,274.470 181.646,274.209 181.646 C 273.948 181.646,273.734 181.859,273.734 182.120 M282.911 197.627 C 282.911 197.888,283.039 198.101,283.194 198.101 C 283.349 198.101,283.559 197.888,283.659 197.627 C 283.770 197.337,283.659 197.152,283.376 197.152 C 283.121 197.152,282.911 197.366,282.911 197.627 M187.342 198.436 C 187.342 198.795,187.484 199.000,187.658 198.892 C 187.832 198.785,187.975 198.492,187.975 198.241 C 187.975 197.990,187.832 197.785,187.658 197.785 C 187.484 197.785,187.342 198.078,187.342 198.436 M315.190 198.820 C 315.190 199.084,315.403 199.381,315.665 199.482 C 315.926 199.582,316.139 199.543,316.139 199.396 C 316.139 199.249,315.926 198.951,315.665 198.734 C 315.278 198.413,315.190 198.429,315.190 198.820 M89.953 206.241 C 89.477 206.410,89.420 207.278,89.883 207.278 C 90.210 207.278,90.689 206.392,90.466 206.201 C 90.401 206.145,90.170 206.163,89.953 206.241 M289.873 209.460 C 289.873 209.615,290.087 209.824,290.348 209.925 C 290.637 210.036,290.823 209.925,290.823 209.642 C 290.823 209.386,290.609 209.177,290.348 209.177 C 290.087 209.177,289.873 209.304,289.873 209.460 M299.111 225.024 C 299.174 225.211,299.360 225.364,299.525 225.364 C 299.691 225.364,299.877 225.211,299.939 225.024 C 300.002 224.837,299.815 224.684,299.525 224.684 C 299.235 224.684,299.049 224.837,299.111 225.024 M330.696 225.614 C 330.696 225.973,330.839 226.266,331.013 226.266 C 331.187 226.266,331.329 226.061,331.329 225.810 C 331.329 225.559,331.187 225.266,331.013 225.158 C 330.839 225.051,330.696 225.256,330.696 225.614 M306.329 237.025 C 306.515 237.373,306.734 237.658,306.815 237.658 C 306.896 237.658,306.962 237.373,306.962 237.025 C 306.962 236.667,306.751 236.392,306.476 236.392 C 306.088 236.392,306.059 236.520,306.329 237.025 M338.608 239.082 C 338.285 239.471,338.307 239.557,338.727 239.557 C 339.009 239.557,339.241 239.343,339.241 239.082 C 339.241 238.821,339.187 238.608,339.121 238.608 C 339.055 238.608,338.824 238.821,338.608 239.082 M163.766 239.483 C 163.249 239.862,163.252 240.501,163.770 240.303 C 164.029 240.203,164.241 239.924,164.241 239.681 C 164.241 239.178,164.202 239.162,163.766 239.483 M345.570 251.108 C 345.570 251.369,345.712 251.582,345.886 251.582 C 346.060 251.582,346.203 251.369,346.203 251.108 C 346.203 250.847,346.060 250.633,345.886 250.633 C 345.712 250.633,345.570 250.847,345.570 251.108 " class="colord6e0f0 svgShape"></path><path fill="#f4f4fa" fill-rule="evenodd" d="M176.582 109.475 C 176.582 110.006,177.144 110.137,177.330 109.650 C 177.441 109.363,177.329 109.177,177.047 109.177 C 176.791 109.177,176.582 109.311,176.582 109.475 M202.848 117.722 C 202.848 117.896,203.062 118.038,203.323 118.038 C 203.584 118.038,203.797 117.896,203.797 117.722 C 203.797 117.547,203.584 117.405,203.323 117.405 C 203.062 117.405,202.848 117.547,202.848 117.722 M140.401 118.882 C 140.016 119.266,140.182 119.603,140.665 119.418 C 140.926 119.318,141.139 119.109,141.139 118.953 C 141.139 118.622,140.703 118.579,140.401 118.882 M168.987 122.943 C 168.987 123.204,169.130 123.418,169.304 123.418 C 169.478 123.418,169.620 123.204,169.620 122.943 C 169.620 122.682,169.478 122.468,169.304 122.468 C 169.130 122.468,168.987 122.682,168.987 122.943 M150.633 154.589 C 150.633 154.850,150.760 155.063,150.916 155.063 C 151.071 155.063,151.280 154.850,151.380 154.589 C 151.491 154.299,151.381 154.114,151.098 154.114 C 150.842 154.114,150.633 154.328,150.633 154.589 M177.733 161.236 C 177.623 161.523,177.734 161.709,178.016 161.709 C 178.528 161.709,178.645 161.214,178.198 160.938 C 178.042 160.842,177.833 160.976,177.733 161.236 M198.443 178.526 C 198.429 178.812,198.204 179.128,197.943 179.228 C 197.682 179.329,197.468 179.563,197.468 179.749 C 197.468 179.936,197.769 179.808,198.136 179.466 C 198.502 179.125,198.727 178.656,198.635 178.426 C 198.518 178.132,198.460 178.163,198.443 178.526 M105.380 180.222 C 105.057 180.610,105.079 180.696,105.499 180.696 C 105.782 180.696,106.013 180.483,106.013 180.222 C 106.013 179.960,105.959 179.747,105.893 179.747 C 105.827 179.747,105.596 179.960,105.380 180.222 M273.174 180.439 C 273.331 180.912,274.051 181.172,274.051 180.756 C 274.051 180.586,273.825 180.361,273.550 180.255 C 273.241 180.137,273.097 180.208,273.174 180.439 M280.063 192.405 C 280.063 192.579,280.277 192.722,280.538 192.722 C 280.799 192.722,281.013 192.579,281.013 192.405 C 281.013 192.231,280.799 192.089,280.538 192.089 C 280.277 192.089,280.063 192.231,280.063 192.405 M314.898 199.140 C 314.885 199.450,315.087 199.785,315.348 199.886 C 315.609 199.986,315.823 200.266,315.823 200.509 C 315.823 200.751,316.072 200.945,316.377 200.939 C 316.828 200.931,316.778 200.795,316.104 200.201 C 315.650 199.801,315.198 199.271,315.101 199.025 C 314.971 198.697,314.917 198.728,314.898 199.140 M91.973 203.325 C 91.863 203.612,91.974 203.797,92.257 203.797 C 92.769 203.797,92.885 203.303,92.438 203.027 C 92.282 202.931,92.073 203.065,91.973 203.325 M289.241 207.930 C 289.241 208.114,289.371 208.185,289.530 208.086 C 289.689 207.988,289.891 208.086,289.980 208.305 C 290.076 208.545,290.150 208.483,290.165 208.149 C 290.179 207.844,289.976 207.595,289.715 207.595 C 289.454 207.595,289.241 207.746,289.241 207.930 M232.599 215.830 C 232.991 216.563,233.228 216.633,233.228 216.015 C 233.228 215.772,233.011 215.491,232.746 215.389 C 232.353 215.238,232.326 215.319,232.599 215.830 M298.418 223.418 C 298.418 223.592,298.631 223.734,298.892 223.734 C 299.153 223.734,299.367 223.592,299.367 223.418 C 299.367 223.244,299.153 223.101,298.892 223.101 C 298.631 223.101,298.418 223.244,298.418 223.418 M268.038 223.674 C 268.038 223.844,268.263 224.069,268.539 224.175 C 268.847 224.293,268.992 224.223,268.915 223.992 C 268.757 223.518,268.038 223.258,268.038 223.674 M273.101 232.120 C 272.779 232.509,272.800 232.595,273.221 232.595 C 273.503 232.595,273.734 232.381,273.734 232.120 C 273.734 231.859,273.680 231.646,273.615 231.646 C 273.549 231.646,273.318 231.859,273.101 232.120 M71.028 239.846 C 71.126 240.006,71.028 240.208,70.809 240.296 C 70.569 240.393,70.631 240.466,70.965 240.481 C 71.270 240.495,71.519 240.293,71.519 240.032 C 71.519 239.771,71.368 239.557,71.184 239.557 C 71.000 239.557,70.929 239.687,71.028 239.846 M339.144 240.392 C 338.907 240.629,339.166 241.139,339.523 241.139 C 339.658 241.139,339.768 240.926,339.768 240.665 C 339.768 240.169,339.489 240.047,339.144 240.392 M155.696 253.006 C 155.696 253.267,155.839 253.481,156.013 253.481 C 156.187 253.481,156.329 253.267,156.329 253.006 C 156.329 252.745,156.187 252.532,156.013 252.532 C 155.839 252.532,155.696 252.745,155.696 253.006 M257.667 259.236 C 257.825 259.709,258.544 259.970,258.544 259.554 C 258.544 259.384,258.319 259.158,258.043 259.053 C 257.735 258.934,257.590 259.005,257.667 259.236 " class="colorf4f4fa svgShape"></path><path fill="#eceff4" fill-rule="evenodd" d="M187.975 36.076 C 187.975 36.250,188.188 36.392,188.449 36.392 C 188.710 36.392,188.924 36.250,188.924 36.076 C 188.924 35.902,188.710 35.759,188.449 35.759 C 188.188 35.759,187.975 35.902,187.975 36.076 M235.495 167.999 C 235.170 168.205,235.212 168.303,235.680 168.425 C 236.059 168.524,236.287 168.422,236.287 168.153 C 236.287 167.658,236.093 167.620,235.495 167.999 " class="coloreceff4 svgShape"></path><path fill="#e4ecf4" fill-rule="evenodd" d="M160.021 84.388 C 159.637 84.773,159.802 85.110,160.285 84.925 C 160.546 84.824,160.759 84.615,160.759 84.460 C 160.759 84.128,160.324 84.086,160.021 84.388 M201.091 120.859 C 201.189 121.018,201.091 121.221,200.872 121.309 C 200.632 121.405,200.694 121.479,201.028 121.494 C 201.333 121.508,201.582 121.305,201.582 121.044 C 201.582 120.783,201.431 120.570,201.247 120.570 C 201.063 120.570,200.993 120.700,201.091 120.859 M188.433 142.694 C 188.531 142.854,188.433 143.056,188.214 143.144 C 187.974 143.241,188.036 143.314,188.370 143.329 C 188.675 143.343,188.924 143.141,188.924 142.880 C 188.924 142.619,188.773 142.405,188.589 142.405 C 188.405 142.405,188.334 142.535,188.433 142.694 M284.202 145.649 C 284.188 145.953,284.391 146.203,284.652 146.203 C 284.913 146.203,285.127 146.052,285.127 145.867 C 285.127 145.683,284.996 145.613,284.837 145.711 C 284.678 145.810,284.476 145.711,284.387 145.492 C 284.291 145.253,284.217 145.315,284.202 145.649 M124.252 146.995 C 124.142 147.283,124.253 147.468,124.535 147.468 C 125.047 147.468,125.164 146.974,124.717 146.698 C 124.561 146.601,124.352 146.735,124.252 146.995 M257.796 153.954 C 257.896 154.214,258.105 154.348,258.261 154.252 C 258.708 153.976,258.591 153.481,258.080 153.481 C 257.797 153.481,257.686 153.667,257.796 153.954 M175.633 164.715 C 175.633 164.976,175.775 165.190,175.949 165.190 C 176.123 165.190,176.266 164.976,176.266 164.715 C 176.266 164.454,176.123 164.241,175.949 164.241 C 175.775 164.241,175.633 164.454,175.633 164.715 M302.680 177.231 C 302.379 177.718,302.791 178.032,303.197 177.625 C 303.425 177.398,303.430 177.221,303.214 177.088 C 303.037 176.978,302.797 177.043,302.680 177.231 M73.620 234.968 C 73.509 235.258,73.619 235.443,73.902 235.443 C 74.158 235.443,74.367 235.229,74.367 234.968 C 74.367 234.707,74.240 234.494,74.084 234.494 C 73.929 234.494,73.720 234.707,73.620 234.968 " class="colore4ecf4 svgShape"></path></svg></g></svg>